<svg width="270" height="162" viewBox="0 0 270 162" fill="none" xmlns="http://www.w3.org/2000/svg">
<path d="M212.16 31.6886H74.5599V25.8994C74.5603 24.2044 75.1926 22.5789 76.3182 21.3802C77.4436 20.1817 78.9699 19.5083 80.5615 19.5078H210.327C210.105 20.656 209.994 21.8251 209.994 22.9973C209.994 23.0468 209.994 23.0904 209.994 23.1385H96.0769V28.0084H210.575L210.685 27.9753C211.047 29.267 211.543 30.5123 212.16 31.6886Z" fill="#55DEFF"/>
<path d="M149.42 126.607C150.299 126.607 151.159 126.883 151.891 127.405C152.622 127.924 153.192 128.663 153.529 129.529C153.866 130.394 153.954 131.346 153.782 132.265C153.611 133.183 153.188 134.027 152.566 134.69C151.944 135.352 151.151 135.803 150.289 135.985C149.426 136.168 148.532 136.075 147.719 135.716C146.907 135.357 146.213 134.75 145.725 133.972C145.235 133.192 144.976 132.276 144.976 131.34C144.976 130.084 145.446 128.881 146.278 127.993C147.111 127.107 148.241 126.607 149.42 126.607Z" fill="#FFE8BB"/>
<path d="M229.617 55.4408V109.968C228.561 110.452 227.536 111.003 226.544 111.62L224.227 110.785L224.286 110.594V45.0791L229.617 55.4408Z" fill="#FFE8BB"/>
<path d="M229.617 44.2328V55.4402L224.286 45.0755V42.5068C226.01 43.2538 227.794 43.8316 229.617 44.2328Z" fill="#313553"/>
<path d="M219.311 139.973H209.59L214.131 122.709H217.117C216.334 124.779 215.931 126.989 215.929 129.221C215.957 133.096 217.141 136.862 219.311 139.973Z" fill="#313553"/>
<path d="M214.135 122.709L209.595 139.973H77.3259C75.1787 139.973 73.1194 139.064 71.601 137.448C70.0827 135.83 69.2296 133.637 69.2296 131.351V90.1727L74.5599 82.9219V116.317C74.5603 118.012 75.1926 119.638 76.3182 120.836C77.4436 122.034 78.9699 122.709 80.5615 122.709H214.135ZM153.875 131.34C153.875 130.403 153.615 129.488 153.126 128.708C152.638 127.93 151.944 127.322 151.131 126.963C150.319 126.605 149.425 126.511 148.561 126.693C147.699 126.876 146.907 127.326 146.285 127.987C145.661 128.65 145.238 129.494 145.066 130.412C144.894 131.331 144.981 132.283 145.317 133.149C145.654 134.014 146.223 134.754 146.955 135.276C147.685 135.795 148.544 136.075 149.425 136.075C150.604 136.075 151.733 135.576 152.568 134.688C153.402 133.799 153.87 132.596 153.87 131.34H153.875Z" fill="#FFE8BB"/>
<path d="M212.22 47.718C212.533 47.7099 212.844 47.7685 213.136 47.8905C213.427 48.0124 213.694 48.1954 213.918 48.4284C214.142 48.6614 214.32 48.9397 214.441 49.2472C214.562 49.5545 214.626 49.8847 214.626 50.2183C214.626 50.5519 214.562 50.8823 214.441 51.1896C214.32 51.4971 214.142 51.7754 213.918 52.0084C213.694 52.2414 213.427 52.4242 213.136 52.5462C212.844 52.6682 212.533 52.7269 212.22 52.7186H158.096C157.632 52.7197 157.177 52.5735 156.79 52.2991C156.404 52.0245 156.103 51.6339 155.924 51.1767C155.746 50.7196 155.701 50.2165 155.791 49.7312C155.883 49.246 156.107 48.8005 156.436 48.4511C156.653 48.2176 156.911 48.0326 157.196 47.9067C157.481 47.7808 157.787 47.7167 158.096 47.718H212.22Z" fill="#55DEFF"/>
<path d="M212.22 58.4102C212.843 58.4102 213.44 58.6736 213.88 59.1426C214.321 59.6117 214.568 60.2479 214.568 60.9112C214.568 61.5744 214.321 62.2106 213.88 62.6797C213.44 63.1486 212.843 63.4122 212.22 63.4122H130.713C130.09 63.411 129.493 63.1467 129.052 62.6774C128.612 62.208 128.364 61.5717 128.363 60.9082C128.366 60.2458 128.614 59.6113 129.054 59.1432C129.495 58.6753 130.091 58.4117 130.713 58.4102H212.22Z" fill="#313553"/>
<path d="M212.22 69.1038C212.533 69.0955 212.844 69.1543 213.136 69.2762C213.427 69.3982 213.694 69.581 213.918 69.814C214.142 70.047 214.32 70.3253 214.441 70.6328C214.562 70.9401 214.626 71.2705 214.626 71.6041C214.626 71.9377 214.562 72.2679 214.441 72.5754C214.32 72.8827 214.142 73.1611 213.918 73.394C213.694 73.627 213.427 73.81 213.136 73.9319C212.844 74.0539 212.533 74.1125 212.22 74.1044H185.479C184.856 74.1039 184.259 73.8402 183.818 73.3709C183.378 72.9016 183.13 72.2653 183.13 71.6018C183.131 70.9388 183.379 70.3035 183.819 69.8352C184.259 69.3668 184.857 69.1038 185.479 69.1038H212.22Z" fill="#55DEFF"/>
<path d="M212.22 79.7915C212.843 79.7915 213.44 80.0544 213.88 80.5246C214.321 80.9932 214.568 81.6286 214.568 82.2926C214.568 82.9565 214.321 83.5919 213.88 84.0606C213.44 84.5307 212.843 84.7936 212.22 84.7936H126.15C125.527 84.7921 124.929 84.5292 124.488 84.0591C124.047 83.5904 123.799 82.9535 123.799 82.2896C123.801 81.6271 124.05 80.9917 124.491 80.5246C124.931 80.0559 125.528 79.793 126.15 79.7915H212.22Z" fill="#313553"/>
<path d="M212.22 90.4897C212.832 90.5063 213.414 90.7767 213.843 91.2438C214.27 91.711 214.51 92.3374 214.51 92.9908C214.51 93.6427 214.27 94.2691 213.843 94.7363C213.414 95.2034 212.832 95.4738 212.22 95.4903H167.225C166.601 95.4903 166.003 95.226 165.563 94.7573C165.122 94.2871 164.875 93.6517 164.874 92.9878C164.875 92.3254 165.125 91.6899 165.565 91.2213C166.005 90.7526 166.603 90.4897 167.225 90.4897H212.22Z" fill="#55DEFF"/>
<path d="M212.22 101.182C212.533 101.174 212.844 101.233 213.136 101.355C213.427 101.476 213.694 101.659 213.918 101.892C214.142 102.125 214.32 102.403 214.441 102.711C214.562 103.019 214.626 103.348 214.626 103.683C214.626 104.016 214.562 104.345 214.441 104.653C214.32 104.961 214.142 105.239 213.918 105.472C213.694 105.705 213.427 105.888 213.136 106.01C212.844 106.131 212.533 106.19 212.22 106.182H199.171C198.548 106.182 197.951 105.918 197.51 105.449C197.069 104.979 196.821 104.344 196.821 103.68C196.823 103.017 197.071 102.382 197.512 101.913C197.952 101.446 198.549 101.183 199.171 101.182H212.22Z" fill="#313553"/>
<path d="M212.22 111.874C212.843 111.874 213.44 112.137 213.88 112.607C214.321 113.076 214.568 113.711 214.568 114.375C214.568 115.039 214.321 115.674 213.88 116.143C213.44 116.613 212.843 116.876 212.22 116.876H139.842C139.218 116.875 138.62 116.612 138.18 116.142C137.739 115.673 137.492 115.036 137.49 114.372C137.493 113.71 137.741 113.074 138.183 112.607C138.623 112.138 139.22 111.876 139.842 111.874H212.22Z" fill="#55DEFF"/>
<path d="M212.401 37.0439L210.125 42.0265H139.842C139.218 42.0265 138.622 41.763 138.181 41.2939C137.74 40.825 137.493 40.1888 137.493 39.5255C137.493 38.8621 137.74 38.226 138.181 37.757C138.622 37.2879 139.218 37.0244 139.842 37.0244H212.22C212.283 37.0244 212.338 37.0394 212.401 37.0439Z" fill="#313553"/>
<path d="M77.3259 15.3667H211.636C211.043 16.6856 210.605 18.0762 210.327 19.5081H80.5615C78.9699 19.5085 77.4436 20.1821 76.3182 21.3806C75.1926 22.5792 74.5603 24.2046 74.5599 25.8996V46.3031C72.9062 44.9983 71.1179 43.8991 69.2296 43.0269V23.9889C69.2296 22.8566 69.4391 21.7354 69.8459 20.6894C70.2528 19.6433 70.8492 18.6927 71.601 17.8921C72.3528 17.0914 73.2453 16.4563 74.2276 16.0231C75.2098 15.5898 76.2626 15.3667 77.3259 15.3667Z" fill="#FFE8BB"/>
<path d="M210.686 27.9755L210.576 28.0086H96.0769V23.1387H209.999C210.008 24.7778 210.239 26.407 210.686 27.9755Z" fill="#313553"/>
<path d="M186.207 101.182C186.819 101.198 187.402 101.469 187.831 101.936C188.258 102.403 188.498 103.029 188.498 103.681C188.498 104.335 188.258 104.961 187.831 105.428C187.402 105.895 186.819 106.166 186.207 106.182H95.572C94.9488 106.182 94.3513 105.918 93.9108 105.449C93.4702 104.979 93.2225 104.344 93.2221 103.68C93.2239 103.017 93.4723 102.382 93.9127 101.913C94.353 101.446 94.9496 101.183 95.572 101.182H186.207Z" fill="#55DEFF"/>
<path d="M172.514 69.104C173.126 69.1201 173.709 69.3905 174.138 69.8576C174.565 70.3248 174.805 70.9516 174.805 71.6043C174.805 72.257 174.565 72.8838 174.138 73.351C173.709 73.8181 173.126 74.0887 172.514 74.1046H95.572C94.9488 74.1043 94.3513 73.8405 93.9108 73.3713C93.4702 72.902 93.2225 72.2657 93.2221 71.6021C93.2232 70.9392 93.4713 70.3038 93.9118 69.8354C94.3524 69.367 94.9495 69.104 95.572 69.104H172.514Z" fill="#313553"/>
<path d="M166.905 152.371L168.831 161.416H166.111H133.899H130.015L134.579 139.973L166.905 152.371Z" fill="#FFE8BB"/>
<path d="M164.267 139.973L166.905 152.371L134.579 139.973H164.267Z" fill="#313553"/>
<path d="M154.258 90.4897C154.87 90.5063 155.453 90.7767 155.882 91.2438C156.309 91.711 156.549 92.3374 156.549 92.9908C156.549 93.6427 156.309 94.2691 155.882 94.7363C155.453 95.2034 154.87 95.4738 154.258 95.4903H95.572C94.9488 95.4903 94.3513 95.226 93.9108 94.7573C93.4702 94.2871 93.2225 93.6517 93.2221 92.9878C93.2232 92.3254 93.4713 91.6899 93.9118 91.2213C94.3524 90.7526 94.9495 90.4897 95.572 90.4897H154.258Z" fill="#313553"/>
<path d="M145.131 47.718C145.444 47.7099 145.756 47.7685 146.048 47.8905C146.338 48.0124 146.605 48.1954 146.829 48.4284C147.053 48.6614 147.231 48.9397 147.352 49.2472C147.474 49.5545 147.537 49.8847 147.537 50.2183C147.537 50.5519 147.474 50.8823 147.352 51.1896C147.231 51.4971 147.053 51.7754 146.829 52.0084C146.605 52.2414 146.338 52.4242 146.048 52.5462C145.756 52.6682 145.444 52.7269 145.131 52.7186H95.572C95.2588 52.7269 94.9473 52.6682 94.6557 52.5462C94.3642 52.4242 94.0986 52.2414 93.8743 52.0084C93.6502 51.7754 93.4719 51.4971 93.3503 51.1896C93.2287 50.8823 93.166 50.5519 93.166 50.2183C93.166 49.8847 93.2287 49.5545 93.3503 49.2472C93.4719 48.9397 93.6502 48.6614 93.8743 48.4284C94.0986 48.1954 94.3642 48.0124 94.6557 47.8905C94.9473 47.7685 95.2588 47.7099 95.572 47.718H145.131Z" fill="#313553"/>
<path d="M126.875 37.0244C127.498 37.0244 128.095 37.2879 128.536 37.757C128.976 38.226 129.223 38.8621 129.223 39.5255C129.223 40.1888 128.976 40.825 128.536 41.2939C128.095 41.763 127.498 42.0265 126.875 42.0265H95.572C94.9488 42.0261 94.3513 41.7623 93.9108 41.2932C93.4702 40.8239 93.2225 40.1876 93.2221 39.524C93.2236 38.8611 93.4717 38.2257 93.9122 37.7572C94.3526 37.2888 94.9495 37.0252 95.572 37.0244H126.875Z" fill="#55DEFF"/>
<path d="M126.875 111.874C127.498 111.874 128.095 112.137 128.536 112.607C128.976 113.076 129.223 113.711 129.223 114.375C129.223 115.039 128.976 115.674 128.536 116.143C128.095 116.613 127.498 116.876 126.875 116.876H95.572C94.9488 116.875 94.3513 116.612 93.9107 116.142C93.4702 115.673 93.2225 115.036 93.2221 114.372C93.2239 113.71 93.4723 113.074 93.9127 112.606C94.353 112.138 94.9496 111.876 95.572 111.874H126.875Z" fill="#313553"/>
<path d="M117.748 58.4102C118.371 58.4102 118.968 58.6736 119.408 59.1426C119.849 59.6117 120.096 60.2479 120.096 60.9112C120.096 61.5744 119.849 62.2106 119.408 62.6797C118.968 63.1486 118.371 63.4122 117.748 63.4122H95.572C94.9488 63.4113 94.3513 63.1473 93.9107 62.6779C93.4702 62.2083 93.2225 61.5718 93.2221 60.9082C93.2239 60.2455 93.4723 59.6105 93.9127 59.1423C94.353 58.6742 94.9496 58.4109 95.572 58.4102H117.748Z" fill="#55DEFF"/>
<path d="M113.183 79.7915C113.806 79.7915 114.404 80.0544 114.844 80.5246C115.284 80.9932 115.532 81.6286 115.532 82.2926C115.532 82.9565 115.284 83.5919 114.844 84.0606C114.404 84.5307 113.806 84.7936 113.183 84.7936H95.572C94.9488 84.7921 94.3513 84.5292 93.9107 84.0591C93.4702 83.5904 93.2225 82.9535 93.2221 82.2896C93.2239 81.6271 93.4723 80.9917 93.9127 80.5246C94.353 80.0559 94.9496 79.793 95.572 79.7915H113.183Z" fill="#55DEFF"/>
<path d="M82.5108 59.1792C82.8203 59.3022 83.0904 59.5167 83.2891 59.7976C83.488 60.0785 83.6073 60.4141 83.633 60.7647C83.6588 61.1155 83.59 61.4666 83.4347 61.7771C83.2794 62.0875 83.044 62.3442 82.7562 62.5169C82.7562 62.4148 82.7562 62.3081 82.7562 62.2015C82.7562 61.9536 82.7562 61.7058 82.7379 61.4579V61.3994C82.7078 60.6549 82.632 59.9131 82.5108 59.1792Z" fill="#313553"/>
<path d="M81.8902 37.6611C82.2363 37.6599 82.575 37.7681 82.8634 37.9721C83.1517 38.1761 83.3768 38.4664 83.5101 38.8068C83.6433 39.1471 83.6787 39.5217 83.612 39.8834C83.5451 40.2451 83.379 40.5775 83.1345 40.8386C82.8902 41.0998 82.5785 41.2778 82.2391 41.3501C81.8996 41.4225 81.5477 41.386 81.2278 41.2451C80.9079 41.1043 80.6344 40.8656 80.442 40.5592C80.2495 40.2528 80.1468 39.8924 80.1468 39.5238C80.1468 39.0308 80.3303 38.5579 80.6571 38.2088C80.9838 37.8596 81.4273 37.6626 81.8902 37.6611Z" fill="#313553"/>
<path d="M81.8902 48.355C82.236 48.3541 82.5743 48.4624 82.8623 48.6664C83.1502 48.8704 83.3749 49.1607 83.5077 49.5007C83.6407 49.8407 83.6759 50.2151 83.6089 50.5763C83.542 50.9377 83.3759 51.2697 83.1317 51.5305C82.8874 51.7913 82.576 51.969 82.2369 52.0411C81.8978 52.1133 81.5462 52.0767 81.2265 51.9359C80.9071 51.7953 80.6339 51.5568 80.4416 51.2505C80.2494 50.9444 80.1468 50.5844 80.1468 50.2161C80.1468 49.7233 80.3303 49.2506 80.6571 48.9016C80.9839 48.5528 81.4274 48.3562 81.8902 48.355Z" fill="#313553"/>
<path d="M81.8902 69.741C82.3537 69.741 82.7981 69.9371 83.1259 70.2862C83.4536 70.6351 83.6378 71.1086 83.6378 71.6022C83.6378 72.0958 83.4536 72.5691 83.1259 72.9182C82.7981 73.2673 82.3537 73.4633 81.8902 73.4633C81.5175 73.454 81.1573 73.3197 80.8605 73.0797C80.5638 72.8396 80.3456 72.5061 80.2371 72.1264L79.9973 71.9657C80.4092 71.2843 80.7796 70.5753 81.106 69.8432L81.1835 69.8807C81.3288 69.7275 81.7703 69.741 81.8902 69.741Z" fill="#313553"/>
<path d="M81.8902 91.125C82.2363 91.1235 82.575 91.2317 82.8634 91.436C83.1517 91.6402 83.3768 91.9302 83.5101 92.2711C83.6433 92.6106 83.6787 92.9862 83.612 93.3467C83.5451 93.7087 83.379 94.0422 83.1345 94.302C82.8902 94.5634 82.5785 94.7421 82.2391 94.8142C81.8996 94.8863 81.5477 94.8503 81.2278 94.7091C80.9079 94.5679 80.6344 94.3291 80.442 94.0226C80.2495 93.7162 80.1468 93.3557 80.1468 92.9877C80.1468 92.495 80.3303 92.0218 80.6571 91.6733C80.9838 91.3233 81.4273 91.1265 81.8902 91.125Z" fill="#313553"/>
<path d="M81.8902 101.819C82.236 101.817 82.5743 101.927 82.8623 102.13C83.1502 102.334 83.3749 102.624 83.5077 102.965C83.6407 103.304 83.6759 103.679 83.6089 104.041C83.542 104.401 83.3759 104.733 83.1317 104.994C82.8874 105.256 82.576 105.433 82.2369 105.505C81.8978 105.577 81.5462 105.541 81.2265 105.4C80.9071 105.259 80.6339 105.02 80.4416 104.715C80.2494 104.409 80.1468 104.048 80.1468 103.68C80.1468 103.187 80.3303 102.714 80.6571 102.366C80.9839 102.017 81.4274 101.82 81.8902 101.819Z" fill="#313553"/>
<path d="M81.8902 112.511C82.2365 112.509 82.5751 112.617 82.8636 112.822C83.152 113.026 83.377 113.316 83.5101 113.657C83.6434 113.996 83.6788 114.372 83.6118 114.734C83.5448 115.096 83.3785 115.428 83.1341 115.689C82.8895 115.951 82.5778 116.128 82.2383 116.2C81.8988 116.272 81.5467 116.236 81.2268 116.095C80.9069 115.954 80.6336 115.715 80.4413 115.408C80.2491 115.1 80.1465 114.74 80.1468 114.372C80.1468 113.879 80.3303 113.406 80.6571 113.058C80.9839 112.709 81.4274 112.512 81.8902 112.511Z" fill="#313553"/>
<path d="M72.1451 79.8003L74.684 81.0786L74.5556 81.37V82.9217L69.2254 90.1725V81.37C70.228 80.9104 71.2031 80.3861 72.1451 79.8003Z" fill="#313553"/>
<path d="M63.4565 83.3677L63.5059 83.6065C61.1475 89.3026 58.146 94.9551 54.6297 98.1006C53.488 99.1205 52.3898 100.154 51.3347 101.201C50.937 94.9897 50.5082 88.7047 50.0977 83.6065C52.1203 83.9986 54.172 84.1953 56.2277 84.1938C58.6583 84.1983 61.0821 83.9205 63.4565 83.3677Z" fill="#313553"/>
<path d="M46.9213 111.841C47.7889 109.677 49.1266 107.763 50.8241 106.256C51.0837 106.043 51.3432 105.828 51.6084 105.624C55.7964 102.487 60.3599 99.9609 65.1773 98.1133C65.0489 98.4047 60.1475 109.462 55.4449 113.686C54.3546 114.662 53.2629 115.538 52.2318 116.39C51.1854 117.237 50.1956 118.161 49.2698 119.155C48.2476 120.226 47.4391 121.507 46.8927 122.919C46.3461 124.331 46.0728 125.847 46.0891 127.375V127.623H44.0778V127.375C44.1033 124.755 44.3326 122.143 44.7633 119.564C45.1736 116.903 45.8987 114.308 46.9213 111.841Z" fill="#55DEFF"/>
<path d="M52.7311 127.375V127.623H50.2853C50.1664 124.775 49.8242 121.943 49.2627 119.155C50.1887 118.161 51.1785 117.237 52.2248 116.39C52.5393 122.029 52.7311 126.247 52.7311 127.375Z" fill="#313553"/>
<path d="M51.6084 105.619C51.3432 105.828 51.0837 106.043 50.8241 106.256C49.1266 107.763 47.789 109.677 46.9213 111.841C46.3783 110.94 45.7069 109.941 44.9311 108.828C43.1285 106.232 40.7927 103.073 38.3963 99.5628C35.5106 95.4469 32.9346 91.0953 30.6922 86.5468C30.6922 86.5468 30.6781 86.5228 30.6555 86.4792C30.3184 85.7642 29.9982 85.0552 29.6936 84.3357C19.7115 60.8889 26.1786 37.5112 26.1786 37.5112C29.6008 40.8354 32.8115 44.3984 35.7897 48.1764C33.9188 49.9391 32.4112 52.0956 31.362 54.5098C30.3128 56.9239 29.7446 59.5436 29.6936 62.2033C29.6936 72.5995 38.3963 81.3149 50.0977 83.6086C50.5082 88.7069 50.937 94.9918 51.3347 101.203C51.4264 102.684 51.5223 104.161 51.6084 105.619Z" fill="#55DEFF"/>
<path d="M43.7816 110.674C43.7816 110.674 44.5305 115.422 44.7689 119.559C44.3383 122.138 44.1089 124.75 44.0834 127.37V127.618H42.0791V127.37C42.7844 122.344 42.0608 116.687 42.0791 114.013C42.5873 112.867 43.1557 111.752 43.7816 110.674Z" fill="#313553"/>
<path d="M44.9311 108.828C44.5305 109.429 44.1469 110.047 43.7816 110.674C43.1557 111.752 42.5874 112.867 42.0791 114.013C40.2292 118.272 39.2567 122.903 39.2271 127.594V127.618H38.4231C38.3744 122.402 37.8688 117.204 36.9125 112.087C37.3737 109.516 37.6177 106.6 37.9125 103.624C38.0451 102.283 38.1861 100.928 38.3596 99.5911L38.3963 99.561C40.7927 103.075 43.1285 106.229 44.9311 108.828Z" fill="#55DEFF"/>
<path d="M38.4231 127.622H34.8687C34.6359 114.741 26.4579 110.674 18.27 103.325C9.80708 95.7379 1 75.7085 1 75.7085C9.80327 79.085 18.1223 83.7509 25.7174 89.5702C25.9541 89.7835 26.2008 89.9848 26.4565 90.171C32.3806 95.119 35.3976 104.063 36.9125 112.087C37.8691 117.203 38.3747 122.405 38.4231 127.622Z" fill="#55DEFF"/>
<path d="M38.3963 99.5623L38.3596 99.5924C38.1861 100.929 38.0451 102.284 37.9125 103.626C37.1001 97.8859 32.7826 94.8336 26.4579 90.1725C26.2111 89.9682 25.9685 89.7639 25.7174 89.5716C19.9809 84.4494 18.1882 71.9531 18.1882 71.9531C24.7554 76.0645 30.1633 85.5955 30.6555 86.4802C30.6781 86.5238 30.6922 86.5478 30.6922 86.5478C32.9346 91.0948 35.5106 95.4465 38.3963 99.5623Z" fill="#313553"/>
<path d="M69.2296 81.3703C70.2308 80.9106 71.2045 80.3864 72.1451 79.8005L74.684 81.0788L87.0963 87.3007L79.0565 73.415C79.3936 72.9433 79.7138 72.4626 80.0058 71.9654C80.4181 71.2836 80.7883 70.5741 81.1144 69.8414C82.1526 67.555 82.7127 65.0562 82.7563 62.517C82.7563 62.4149 82.7563 62.3082 82.7563 62.2016C82.7563 61.9537 82.7563 61.7059 82.7379 61.458" stroke="#313553" stroke-width="0.647" stroke-linecap="round" stroke-linejoin="round"/>
<path d="M82.7435 61.3995C82.7117 60.6547 82.6338 59.9131 82.5108 59.1793C81.5065 53.9612 78.6607 49.3524 74.5599 46.3031C72.9062 44.9982 71.1178 43.8989 69.2296 43.0269C65.125 41.1408 60.698 40.1813 56.2277 40.2089C48.7186 40.0384 41.4235 42.8802 35.7897 48.1702C33.9188 49.9328 32.4112 52.0893 31.3619 54.5035C30.3128 56.9177 29.7446 59.5373 29.6936 62.1971C29.6936 72.5934 38.3963 81.3086 50.0977 83.6023C52.1202 83.9944 54.1719 84.1912 56.2277 84.1897C58.6583 84.1942 61.0821 83.9163 63.4565 83.3635C65.4374 82.9024 67.3709 82.2354 69.2296 81.3717" stroke="#313553" stroke-width="0.647" stroke-linecap="round" stroke-linejoin="round"/>
<path d="M212.406 37.0436L213.702 34.2061C213.128 33.4088 212.609 32.5673 212.15 31.6886C211.534 30.5121 211.042 29.2668 210.682 27.9753C210.236 26.4068 210.005 24.7775 209.997 23.1384C209.997 23.0904 209.997 23.0468 209.997 22.9972C209.997 21.8253 210.107 20.6561 210.327 19.5078C210.603 18.0761 211.042 16.6856 211.633 15.3664C215.375 6.97849 225.109 1 236.528 1C251.177 1 263.058 10.8465 263.058 22.9972C263.058 35.148 251.177 44.9914 236.528 44.9914C234.205 44.9956 231.889 44.7398 229.617 44.2284C227.794 43.8307 226.01 43.2545 224.286 42.5069C223.021 41.9645 221.795 41.3244 220.619 40.5917L208.207 46.2307L210.133 42.0247L212.414 37.0421" stroke="#313553" stroke-width="0.647" stroke-linecap="round" stroke-linejoin="round"/>
<path d="M224.227 110.787L216.29 107.923L219.636 118.009C218.598 119.445 217.75 121.027 217.117 122.709C216.334 124.779 215.931 126.99 215.929 129.221C215.957 133.096 217.144 136.862 219.314 139.973C223.855 146.68 232.522 151.215 242.466 151.215C257.117 151.215 268.996 141.367 268.996 129.221C268.996 117.074 257.117 107.228 242.466 107.228C238.053 107.204 233.682 108.138 229.619 109.974C228.564 110.458 227.539 111.009 226.547 111.626L224.227 110.787Z" stroke="#313553" stroke-width="0.647" stroke-linecap="round" stroke-linejoin="round"/>
<path d="M69.2296 43.0269V23.9889C69.2296 21.7022 70.0827 19.5091 71.601 17.8921C73.1194 16.2752 75.1787 15.3667 77.3259 15.3667H211.636" stroke="#313553" stroke-width="0.647" stroke-linecap="round" stroke-linejoin="round"/>
<path d="M134.583 139.973H77.3259C75.1787 139.973 73.1194 139.064 71.601 137.448C70.0827 135.83 69.2296 133.637 69.2296 131.351V81.3701" stroke="#313553" stroke-width="0.647" stroke-linecap="round" stroke-linejoin="round"/>
<path d="M219.311 139.973H209.59H164.267" stroke="#313553" stroke-width="0.647" stroke-linecap="round" stroke-linejoin="round"/>
<path d="M229.617 44.2329V55.4403V109.974" stroke="#313553" stroke-width="0.647" stroke-linecap="round" stroke-linejoin="round"/>
<path d="M74.5599 46.3089V25.8994C74.5603 24.2044 75.1926 22.5789 76.3182 21.3802C77.4436 20.1817 78.9699 19.5083 80.5615 19.5078H210.327" stroke="#313553" stroke-width="0.647" stroke-linecap="round" stroke-linejoin="round"/>
<path d="M217.117 122.709H80.5615C78.9699 122.709 77.4436 122.034 76.3182 120.836C75.1926 119.638 74.5603 118.012 74.5599 116.317V81.3701" stroke="#313553" stroke-width="0.647" stroke-linecap="round" stroke-linejoin="round"/>
<path d="M224.286 42.5132V45.0788V110.596" stroke="#313553" stroke-width="0.647" stroke-linecap="round" stroke-linejoin="round"/>
<path d="M74.5599 31.689H212.155" stroke="#313553" stroke-width="0.647" stroke-linecap="round" stroke-linejoin="round"/>
<path d="M210.576 28.0086H96.0783V23.1387H209.96" stroke="#313553" stroke-width="0.647" stroke-linecap="round" stroke-linejoin="round"/>
<path d="M153.87 131.34C153.87 132.277 153.611 133.192 153.123 133.972C152.635 134.751 151.939 135.358 151.127 135.717C150.315 136.076 149.422 136.171 148.558 135.989C147.695 135.806 146.903 135.357 146.281 134.694C145.658 134.032 145.234 133.189 145.062 132.27C144.89 131.352 144.977 130.398 145.313 129.533C145.649 128.668 146.218 127.927 146.951 127.406C147.681 126.886 148.54 126.607 149.42 126.607C150.599 126.607 151.731 127.104 152.566 127.992C153.399 128.88 153.869 130.084 153.87 131.34Z" stroke="#313553" stroke-width="0.647" stroke-linecap="round" stroke-linejoin="round"/>
<path d="M130.015 161.416L134.579 139.973H164.267L166.905 152.371L168.831 161.416" stroke="#313553" stroke-width="0.647" stroke-linecap="round" stroke-linejoin="round"/>
<path d="M166.111 161.416H133.899" stroke="#313553" stroke-width="0.647" stroke-linecap="round" stroke-linejoin="round"/>
<path d="M134.579 139.973L166.905 152.371" stroke="#313553" stroke-width="0.647" stroke-linecap="round" stroke-linejoin="round"/>
<path d="M117.734 161.416H124.772" stroke="#313553" stroke-width="0.647" stroke-linecap="round" stroke-linejoin="round"/>
<path d="M126.862 161.416H130.015H133.899" stroke="#313553" stroke-width="0.647" stroke-linecap="round" stroke-linejoin="round"/>
<path d="M17.3292 161.416H24.3676" stroke="#313553" stroke-width="0.647" stroke-linecap="round" stroke-linejoin="round"/>
<path d="M51.8594 161.416H70.0054" stroke="#313553" stroke-width="0.647" stroke-linecap="round" stroke-linejoin="round"/>
<path d="M26.4579 161.416H35.9773" stroke="#313553" stroke-width="0.647" stroke-linecap="round" stroke-linejoin="round"/>
<path d="M166.111 161.416H168.831H173.148" stroke="#313553" stroke-width="0.647" stroke-linecap="round" stroke-linejoin="round"/>
<path d="M175.238 161.416H182.276" stroke="#313553" stroke-width="0.647" stroke-linecap="round" stroke-linejoin="round"/>
<path d="M87.2656 28.5732L91.9343 25.7056L87.2656 22.832" stroke="#313553" stroke-width="0.647" stroke-linecap="round" stroke-linejoin="round"/>
<path d="M84.2485 22.832L79.5756 25.7056L84.2485 28.5732" stroke="#313553" stroke-width="0.647" stroke-linecap="round" stroke-linejoin="round"/>
<path d="M224.286 45.0791L229.617 55.4408" stroke="#313553" stroke-width="0.647" stroke-linecap="round" stroke-linejoin="round"/>
<path d="M214.131 122.709L209.59 139.973" stroke="#313553" stroke-width="0.647" stroke-linecap="round" stroke-linejoin="round"/>
<path d="M74.5599 82.9219L69.2296 90.1727" stroke="#313553" stroke-width="0.647" stroke-linecap="round" stroke-linejoin="round"/>
<path d="M51.8594 161.416H35.9773C33.4527 161.416 31.0313 160.348 29.2462 158.446C27.4609 156.546 26.4579 153.967 26.4579 151.278V127.623H61.3788V151.278C61.3786 153.967 60.3754 156.545 58.5903 158.446C56.8052 160.348 54.3841 161.416 51.8594 161.416Z" stroke="#313553" stroke-width="0.647" stroke-linecap="round" stroke-linejoin="round"/>
<path d="M38.4231 127.622C38.3747 122.405 37.8691 117.203 36.9125 112.087C35.3976 104.063 32.3806 95.113 26.4579 90.171C26.2111 89.9667 25.9685 89.7624 25.7174 89.5702C18.1223 83.7509 9.80327 79.085 1 75.7085C1 75.7085 9.80849 95.7379 18.27 103.325C26.4579 110.674 34.6317 114.741 34.8687 127.622" stroke="#313553" stroke-width="0.647" stroke-linecap="round" stroke-linejoin="round"/>
<path d="M42.0791 114.018C40.2292 118.276 39.2567 122.907 39.2271 127.598" stroke="#313553" stroke-width="0.647" stroke-linecap="round" stroke-linejoin="round"/>
<path d="M44.9311 108.828C44.5305 109.428 44.1469 110.047 43.7816 110.674C43.1557 111.752 42.5873 112.867 42.0791 114.013" stroke="#313553" stroke-width="0.647" stroke-linecap="round" stroke-linejoin="round"/>
<path d="M63.5059 83.6069C61.1475 89.303 58.146 94.9555 54.6297 98.101C53.4881 99.121 52.3898 100.154 51.3347 101.201" stroke="#313553" stroke-width="0.647" stroke-linecap="round" stroke-linejoin="round"/>
<path d="M36.9125 112.087C37.3737 109.515 37.6177 106.6 37.9125 103.624C38.0451 102.283 38.1861 100.928 38.3596 99.5908" stroke="#313553" stroke-width="0.647" stroke-linecap="round" stroke-linejoin="round"/>
<path d="M65.1872 98.1011C65.0546 98.4015 60.1531 109.454 55.4548 113.678C54.3645 114.655 53.2728 115.53 52.2417 116.382C51.1954 117.229 50.2056 118.153 49.2797 119.147C48.2576 120.218 47.4491 121.5 46.9026 122.912C46.356 124.324 46.0828 125.839 46.099 127.367" stroke="#313553" stroke-width="0.647" stroke-linecap="round" stroke-linejoin="round"/>
<path d="M51.6084 105.619C55.7964 102.483 60.3599 99.956 65.1773 98.1084" stroke="#313553" stroke-width="0.647" stroke-linecap="round" stroke-linejoin="round"/>
<path d="M44.0778 127.374C44.1033 124.755 44.3326 122.142 44.7633 119.563C45.1739 116.904 45.899 114.31 46.9213 111.845C47.7889 109.681 49.1266 107.767 50.8241 106.26C51.0837 106.047 51.3432 105.832 51.6084 105.628" stroke="#313553" stroke-width="0.647" stroke-linecap="round" stroke-linejoin="round"/>
<path d="M49.2627 119.155C49.8242 121.943 50.1664 124.774 50.2853 127.622" stroke="#313553" stroke-width="0.647" stroke-linecap="round" stroke-linejoin="round"/>
<path d="M30.6922 86.5513C32.9346 91.0997 35.5106 95.4514 38.3963 99.5672C40.7941 103.078 43.1285 106.237 44.9311 108.832C45.7069 109.945 46.3783 110.95 46.9213 111.846" stroke="#313553" stroke-width="0.647" stroke-linecap="round" stroke-linejoin="round"/>
<path d="M35.7897 48.1749C32.8115 44.3969 29.6008 40.834 26.1786 37.5098C26.1786 37.5098 19.7115 60.8874 29.6936 84.3342C29.9982 85.0537 30.3184 85.7627 30.6555 86.4778" stroke="#313553" stroke-width="0.647" stroke-linecap="round" stroke-linejoin="round"/>
<path d="M51.6084 105.628C51.5223 104.165 51.4264 102.688 51.3347 101.206C50.937 94.9945 50.5082 88.7096 50.0977 83.6113" stroke="#313553" stroke-width="0.647" stroke-linecap="round" stroke-linejoin="round"/>
<path d="M52.7311 127.375C52.7311 126.247 52.5393 122.029 52.229 116.39" stroke="#313553" stroke-width="0.647" stroke-linecap="round" stroke-linejoin="round"/>
<path d="M30.6922 86.5508C30.6922 86.5508 30.6781 86.5267 30.6555 86.4832C30.1633 85.5984 24.7554 76.0674 18.1882 71.9561C18.1882 71.9561 19.9809 84.4523 25.7174 89.5746C25.9542 89.7879 26.2015 89.9891 26.4579 90.1754C32.7826 94.832 37.1001 97.8889 37.9125 103.629" stroke="#313553" stroke-width="0.647" stroke-linecap="round" stroke-linejoin="round"/>
<path d="M42.0791 114.013C42.0608 116.687 42.7844 122.344 42.0791 127.37" stroke="#313553" stroke-width="0.647" stroke-linecap="round" stroke-linejoin="round"/>
<path d="M43.7816 110.674C43.7816 110.674 44.5305 115.422 44.7689 119.559" stroke="#313553" stroke-width="0.647" stroke-linecap="round" stroke-linejoin="round"/>
<path d="M89.5985 35.1631V117.361" stroke="#313553" stroke-width="0.647" stroke-linecap="round" stroke-linejoin="round"/>
<path d="M126.875 42.0265H95.572C94.9488 42.0261 94.3513 41.7623 93.9108 41.2932C93.4702 40.8239 93.2225 40.1876 93.2221 39.524C93.2236 38.8611 93.4717 38.2257 93.9122 37.7572C94.3526 37.2888 94.9495 37.0252 95.572 37.0244H126.875C127.498 37.0244 128.095 37.2879 128.536 37.757C128.976 38.226 129.223 38.8621 129.223 39.5255C129.223 40.1888 128.976 40.825 128.536 41.2939C128.095 41.763 127.498 42.0265 126.875 42.0265Z" stroke="#313553" stroke-width="0.647" stroke-linecap="round" stroke-linejoin="round"/>
<path d="M212.406 37.0439C212.338 37.0439 212.283 37.0244 212.22 37.0244H139.842C139.218 37.0244 138.622 37.2879 138.181 37.757C137.74 38.226 137.493 38.8621 137.493 39.5255C137.493 40.1888 137.74 40.825 138.181 41.2939C138.622 41.763 139.218 42.0265 139.842 42.0265H210.125L212.406 37.0439Z" stroke="#313553" stroke-width="0.647" stroke-linecap="round" stroke-linejoin="round"/>
<path d="M83.6378 39.5238C83.6372 39.8913 83.5344 40.2505 83.3423 40.5559C83.1501 40.8613 82.8773 41.0992 82.5582 41.2395C82.2392 41.3798 81.8882 41.4163 81.5497 41.3444C81.2113 41.2724 80.9003 41.0952 80.6565 40.8351C80.4124 40.5751 80.2463 40.2439 80.179 39.8834C80.1117 39.5227 80.1463 39.149 80.2783 38.8094C80.4103 38.4697 80.6339 38.1794 80.9208 37.9749C81.2077 37.7706 81.5451 37.6614 81.8902 37.6611C82.12 37.6607 82.3475 37.7086 82.5598 37.802C82.772 37.8956 82.9649 38.0328 83.1274 38.2058C83.2897 38.3789 83.4183 38.5843 83.5059 38.8106C83.5935 39.0366 83.6384 39.2791 83.6378 39.5238Z" stroke="#313553" stroke-width="0.647" stroke-linecap="round" stroke-linejoin="round"/>
<path d="M145.131 52.7186H95.572C95.2588 52.7269 94.9473 52.6682 94.6557 52.5462C94.3642 52.4242 94.0986 52.2414 93.8743 52.0084C93.6502 51.7754 93.4719 51.4971 93.3503 51.1896C93.2287 50.8823 93.166 50.5519 93.166 50.2183C93.166 49.8847 93.2287 49.5545 93.3503 49.2472C93.4719 48.9397 93.6502 48.6614 93.8743 48.4284C94.0986 48.1954 94.3642 48.0124 94.6557 47.8905C94.9473 47.7685 95.2588 47.7099 95.572 47.718H145.131C145.444 47.7099 145.756 47.7685 146.048 47.8905C146.338 48.0124 146.605 48.1954 146.829 48.4284C147.053 48.6614 147.231 48.9397 147.352 49.2472C147.474 49.5545 147.537 49.8847 147.537 50.2183C147.537 50.5519 147.474 50.8823 147.352 51.1896C147.231 51.4971 147.053 51.7754 146.829 52.0084C146.605 52.2414 146.338 52.4242 146.048 52.5462C145.756 52.6682 145.444 52.7269 145.131 52.7186Z" stroke="#313553" stroke-width="0.647" stroke-linecap="round" stroke-linejoin="round"/>
<path d="M212.22 52.7186H158.096C157.632 52.7197 157.177 52.5735 156.79 52.2991C156.404 52.0245 156.103 51.6339 155.924 51.1767C155.746 50.7196 155.701 50.2165 155.791 49.7312C155.883 49.246 156.107 48.8005 156.436 48.4511C156.653 48.2176 156.911 48.0326 157.196 47.9067C157.481 47.7808 157.787 47.7167 158.096 47.718H212.22C212.533 47.7099 212.844 47.7685 213.136 47.8905C213.427 48.0124 213.694 48.1954 213.918 48.4284C214.142 48.6614 214.32 48.9397 214.441 49.2472C214.562 49.5545 214.626 49.8847 214.626 50.2183C214.626 50.5519 214.562 50.8823 214.441 51.1896C214.32 51.4971 214.142 51.7754 213.918 52.0084C213.694 52.2414 213.427 52.4242 213.136 52.5462C212.844 52.6682 212.533 52.7269 212.22 52.7186Z" stroke="#313553" stroke-width="0.647" stroke-linecap="round" stroke-linejoin="round"/>
<path d="M83.6378 50.2161C83.6375 50.5837 83.535 50.9432 83.343 51.2487C83.151 51.5542 82.8783 51.7923 82.5592 51.9329C82.2402 52.0735 81.8892 52.1102 81.5507 52.0384C81.212 51.9666 80.901 51.7895 80.6569 51.5296C80.4127 51.2696 80.2466 50.9383 80.1791 50.5777C80.1117 50.2172 80.1461 49.8433 80.2782 49.5037C80.41 49.1639 80.6337 48.8734 80.9206 48.6689C81.2075 48.4645 81.5451 48.3553 81.8902 48.355C82.1198 48.3545 82.3472 48.4024 82.5595 48.4957C82.7716 48.5892 82.9644 48.7263 83.1268 48.8992C83.2891 49.0721 83.4179 49.2774 83.5055 49.5034C83.5932 49.7294 83.6382 49.9716 83.6378 50.2161Z" stroke="#313553" stroke-width="0.647" stroke-linecap="round" stroke-linejoin="round"/>
<path d="M117.748 63.4181H95.572C94.9488 63.4172 94.3513 63.1531 93.9107 62.6837C93.4702 62.2141 93.2225 61.5777 93.2221 60.9141C93.2239 60.2513 93.4723 59.6164 93.9127 59.1483C94.353 58.6801 94.9496 58.4168 95.572 58.416H117.748C118.371 58.416 118.968 58.6795 119.408 59.1485C119.849 59.6176 120.096 60.2537 120.096 60.9171C120.096 61.5804 119.849 62.2166 119.408 62.6855C118.968 63.1545 118.371 63.4181 117.748 63.4181Z" stroke="#313553" stroke-width="0.647" stroke-linecap="round" stroke-linejoin="round"/>
<path d="M212.22 63.4181H130.713C130.09 63.4169 129.493 63.1527 129.052 62.6833C128.612 62.2139 128.364 61.5777 128.363 60.9141C128.366 60.2516 128.614 59.6171 129.054 59.1491C129.495 58.6811 130.091 58.4175 130.713 58.416H212.22C212.843 58.416 213.44 58.6795 213.88 59.1485C214.321 59.6176 214.568 60.2537 214.568 60.9171C214.568 61.5804 214.321 62.2166 213.88 62.6855C213.44 63.1545 212.843 63.4181 212.22 63.4181Z" stroke="#313553" stroke-width="0.647" stroke-linecap="round" stroke-linejoin="round"/>
<path d="M82.7619 62.2015C82.7619 62.3081 82.7619 62.4148 82.752 62.5169C83.0397 62.3442 83.2752 62.0875 83.4304 61.7771C83.5857 61.4666 83.6546 61.1155 83.6288 60.7647C83.6029 60.4141 83.4836 60.0785 83.2849 59.7976C83.086 59.5167 82.816 59.3022 82.5066 59.1792H82.4967C82.6215 59.9151 82.7026 60.6587 82.7393 61.4054V61.4654C82.7562 61.7058 82.7619 61.9536 82.7619 62.2015Z" stroke="#313553" stroke-width="0.647" stroke-linecap="round" stroke-linejoin="round"/>
<path d="M172.514 74.1046H95.572C94.9488 74.1043 94.3513 73.8405 93.9108 73.3713C93.4702 72.902 93.2225 72.2657 93.2221 71.6021C93.2232 70.9392 93.4713 70.3038 93.9118 69.8354C94.3524 69.367 94.9495 69.104 95.572 69.104H172.514C173.126 69.1201 173.709 69.3905 174.138 69.8576C174.565 70.3248 174.805 70.9516 174.805 71.6043C174.805 72.257 174.565 72.8838 174.138 73.351C173.709 73.8181 173.126 74.0887 172.514 74.1046Z" stroke="#313553" stroke-width="0.647" stroke-linecap="round" stroke-linejoin="round"/>
<path d="M212.22 74.1044H185.479C184.856 74.1039 184.259 73.8402 183.818 73.3709C183.378 72.9016 183.13 72.2653 183.13 71.6018C183.131 70.9388 183.379 70.3035 183.819 69.8352C184.259 69.3668 184.857 69.1038 185.479 69.1038H212.22C212.533 69.0955 212.844 69.1543 213.136 69.2762C213.427 69.3982 213.694 69.581 213.918 69.814C214.142 70.047 214.32 70.3253 214.441 70.6328C214.562 70.9401 214.626 71.2705 214.626 71.6041C214.626 71.9377 214.562 72.2679 214.441 72.5754C214.32 72.8827 214.142 73.1611 213.918 73.394C213.694 73.627 213.427 73.81 213.136 73.9319C212.844 74.0539 212.533 74.1125 212.22 74.1044Z" stroke="#313553" stroke-width="0.647" stroke-linecap="round" stroke-linejoin="round"/>
<path d="M81.1864 69.8776C81.3274 69.7274 81.7703 69.738 81.8916 69.738C82.3551 69.738 82.7996 69.934 83.1274 70.2831C83.4551 70.6322 83.6392 71.1055 83.6392 71.5991C83.6392 72.0927 83.4551 72.566 83.1274 72.9151C82.7996 73.2642 82.3551 73.4602 81.8916 73.4602C81.5191 73.4509 81.1587 73.3166 80.862 73.0766C80.5652 72.8365 80.347 72.5031 80.2385 72.1233" stroke="#313553" stroke-width="0.647" stroke-linecap="round" stroke-linejoin="round"/>
<path d="M113.183 84.798H95.572C94.9488 84.7965 94.3513 84.5336 93.9107 84.0634C93.4702 83.5948 93.2225 82.9579 93.2221 82.2939C93.2239 81.6315 93.4723 80.9961 93.9127 80.5274C94.353 80.0603 94.9496 79.7974 95.572 79.7959H113.183C113.806 79.7959 114.404 80.0588 114.844 80.5289C115.284 80.9976 115.532 81.633 115.532 82.2969C115.532 82.9609 115.284 83.5963 114.844 84.0649C114.404 84.5351 113.806 84.798 113.183 84.798Z" stroke="#313553" stroke-width="0.647" stroke-linecap="round" stroke-linejoin="round"/>
<path d="M212.22 84.798H126.15C125.527 84.7965 124.929 84.5336 124.488 84.0634C124.047 83.5948 123.799 82.9579 123.799 82.2939C123.801 81.6315 124.05 80.9961 124.491 80.5289C124.931 80.0603 125.528 79.7974 126.15 79.7959H212.22C212.843 79.7959 213.44 80.0588 213.88 80.5289C214.321 80.9976 214.568 81.633 214.568 82.2969C214.568 82.9609 214.321 83.5963 213.88 84.0649C213.44 84.5351 212.843 84.798 212.22 84.798Z" stroke="#313553" stroke-width="0.647" stroke-linecap="round" stroke-linejoin="round"/>
<path d="M154.258 95.4903H95.572C94.9488 95.4903 94.3513 95.226 93.9108 94.7573C93.4702 94.2871 93.2225 93.6517 93.2221 92.9878C93.2232 92.3254 93.4713 91.6899 93.9118 91.2213C94.3524 90.7526 94.9495 90.4897 95.572 90.4897H154.258C154.87 90.5063 155.453 90.7767 155.882 91.2438C156.309 91.711 156.549 92.3374 156.549 92.9908C156.549 93.6427 156.309 94.2691 155.882 94.7363C155.453 95.2034 154.87 95.4738 154.258 95.4903Z" stroke="#313553" stroke-width="0.647" stroke-linecap="round" stroke-linejoin="round"/>
<path d="M212.22 95.4903H167.225C166.601 95.4903 166.003 95.226 165.563 94.7573C165.122 94.2871 164.875 93.6517 164.874 92.9878C164.875 92.3254 165.125 91.6899 165.565 91.2213C166.005 90.7526 166.603 90.4897 167.225 90.4897H212.22C212.832 90.5063 213.414 90.7767 213.843 91.2438C214.27 91.711 214.51 92.3374 214.51 92.9908C214.51 93.6427 214.27 94.2691 213.843 94.7363C213.414 95.2034 212.832 95.4738 212.22 95.4903Z" stroke="#313553" stroke-width="0.647" stroke-linecap="round" stroke-linejoin="round"/>
<path d="M83.6378 92.9876C83.6372 93.3557 83.5344 93.7147 83.3423 94.0196C83.1501 94.3245 82.8773 94.5634 82.5582 94.7031C82.2392 94.8443 81.8882 94.8803 81.5497 94.8082C81.2113 94.7361 80.9003 94.5589 80.6565 94.299C80.4124 94.0391 80.2463 93.7072 80.179 93.3466C80.1117 92.9861 80.1463 92.6136 80.2783 92.2726C80.4103 91.9331 80.6339 91.6432 80.9208 91.4389C81.2077 91.2347 81.5451 91.125 81.8902 91.125C82.12 91.125 82.3475 91.1731 82.5598 91.2662C82.772 91.3593 82.9649 91.496 83.1274 91.6703C83.2897 91.843 83.4183 92.0488 83.5059 92.2741C83.5935 92.501 83.6384 92.7428 83.6378 92.9876Z" stroke="#313553" stroke-width="0.647" stroke-linecap="round" stroke-linejoin="round"/>
<path d="M186.207 106.182H95.572C94.9488 106.182 94.3513 105.918 93.9108 105.449C93.4702 104.979 93.2225 104.344 93.2221 103.68C93.2239 103.017 93.4723 102.382 93.9127 101.913C94.353 101.446 94.9496 101.183 95.572 101.182H186.207C186.819 101.198 187.402 101.469 187.831 101.936C188.258 102.403 188.498 103.029 188.498 103.681C188.498 104.335 188.258 104.961 187.831 105.428C187.402 105.895 186.819 106.166 186.207 106.182Z" stroke="#313553" stroke-width="0.647" stroke-linecap="round" stroke-linejoin="round"/>
<path d="M212.22 106.182H199.171C198.548 106.182 197.951 105.918 197.51 105.449C197.069 104.979 196.821 104.344 196.821 103.68C196.823 103.017 197.071 102.382 197.512 101.913C197.952 101.446 198.549 101.183 199.171 101.182H212.22C212.533 101.174 212.844 101.233 213.136 101.355C213.427 101.476 213.694 101.659 213.918 101.892C214.142 102.125 214.32 102.403 214.441 102.711C214.562 103.019 214.626 103.348 214.626 103.683C214.626 104.016 214.562 104.345 214.441 104.653C214.32 104.961 214.142 105.239 213.918 105.472C213.694 105.705 213.427 105.888 213.136 106.01C212.844 106.131 212.533 106.19 212.22 106.182Z" stroke="#313553" stroke-width="0.647" stroke-linecap="round" stroke-linejoin="round"/>
<path d="M83.6378 103.675C83.6375 104.043 83.535 104.402 83.343 104.707C83.151 105.014 82.8783 105.251 82.5592 105.392C82.2402 105.533 81.8892 105.569 81.5507 105.497C81.212 105.425 80.901 105.248 80.6569 104.988C80.4127 104.728 80.2466 104.398 80.1791 104.037C80.1117 103.677 80.1461 103.303 80.2782 102.963C80.41 102.624 80.6337 102.332 80.9206 102.128C81.2075 101.924 81.5451 101.814 81.8902 101.814C82.1198 101.814 82.3472 101.862 82.5595 101.955C82.7716 102.048 82.9644 102.185 83.1268 102.358C83.2891 102.53 83.4179 102.736 83.5055 102.963C83.5932 103.188 83.6382 103.43 83.6378 103.675Z" stroke="#313553" stroke-width="0.647" stroke-linecap="round" stroke-linejoin="round"/>
<path d="M126.875 116.876H95.572C94.9488 116.875 94.3513 116.612 93.9107 116.142C93.4702 115.673 93.2225 115.036 93.2221 114.372C93.2239 113.71 93.4723 113.074 93.9127 112.606C94.353 112.138 94.9496 111.876 95.572 111.874H126.875C127.498 111.874 128.095 112.137 128.536 112.607C128.976 113.076 129.223 113.711 129.223 114.375C129.223 115.039 128.976 115.674 128.536 116.143C128.095 116.613 127.498 116.876 126.875 116.876Z" stroke="#313553" stroke-width="0.647" stroke-linecap="round" stroke-linejoin="round"/>
<path d="M212.22 116.876H139.842C139.218 116.875 138.62 116.612 138.18 116.142C137.739 115.673 137.492 115.036 137.49 114.372C137.493 113.71 137.741 113.074 138.183 112.607C138.623 112.138 139.22 111.876 139.842 111.874H212.22C212.843 111.874 213.44 112.137 213.88 112.607C214.321 113.076 214.568 113.711 214.568 114.375C214.568 115.039 214.321 115.674 213.88 116.143C213.44 116.613 212.843 116.876 212.22 116.876Z" stroke="#313553" stroke-width="0.647" stroke-linecap="round" stroke-linejoin="round"/>
<path d="M83.6378 114.372C83.6375 114.74 83.535 115.099 83.343 115.404C83.151 115.71 82.8783 115.948 82.5592 116.089C82.2402 116.23 81.8892 116.266 81.5507 116.194C81.212 116.122 80.901 115.945 80.6569 115.685C80.4127 115.425 80.2466 115.094 80.1791 114.734C80.1117 114.373 80.1461 113.999 80.2782 113.66C80.41 113.32 80.6337 113.029 80.9206 112.825C81.2075 112.62 81.5451 112.511 81.8902 112.511C82.1198 112.511 82.3471 112.559 82.5592 112.652C82.7713 112.745 82.964 112.883 83.1264 113.056C83.2887 113.229 83.4175 113.433 83.5052 113.66C83.593 113.885 83.6379 114.127 83.6378 114.372Z" stroke="#313553" stroke-width="0.647" stroke-linecap="round" stroke-linejoin="round"/>
<path d="M50.5265 62.0844C50.4715 62.0844 50.4179 62.0844 50.3629 62.0844C50.3079 62.0844 50.2487 62.0844 50.1937 62.0844C48.4992 61.9922 46.9057 61.1988 45.7527 59.8732C44.5999 58.5475 43.9789 56.7945 44.0223 54.9882C44.0658 53.1819 44.7702 51.4653 45.9852 50.2041C47.2003 48.943 48.8299 48.2375 50.5265 48.2378" stroke="#313553" stroke-width="0.971" stroke-linecap="round" stroke-linejoin="round"/>
<path d="M41.2892 62.0757H50.5265C50.4715 62.0757 50.4179 62.0757 50.3629 62.0757C48.6571 62.1287 47.0391 62.8934 45.8578 64.2053C44.6765 65.5169 44.0266 67.2704 44.048 69.0878C44.0695 70.9051 44.7606 72.6406 45.9725 73.9201C47.1844 75.1998 48.82 75.921 50.5265 75.9283" stroke="#313553" stroke-width="0.971" stroke-linecap="round" stroke-linejoin="round"/>
<path d="M62.2054 62.0844C62.2604 62.0844 62.3196 62.0844 62.3746 62.0844C62.4296 62.0844 62.4847 62.0844 62.5383 62.0844C64.2327 61.9922 65.8264 61.1988 66.9792 59.8732C68.1321 58.5475 68.753 56.7945 68.7096 54.9882C68.6661 53.1819 67.9619 51.4653 66.7467 50.2041C65.5317 48.943 63.9021 48.2375 62.2054 48.2378" stroke="#313553" stroke-width="0.971" stroke-linecap="round" stroke-linejoin="round"/>
<path d="M71.4427 62.0757H62.2054C62.2604 62.0757 62.3196 62.0757 62.3746 62.0757C64.0809 62.1289 65.6992 62.8942 66.8803 64.2065C68.0616 65.5189 68.7111 67.2731 68.689 69.0906C68.6667 70.9084 67.9746 72.6439 66.7617 73.9231C65.5488 75.2022 63.9124 75.9225 62.2054 75.9283" stroke="#313553" stroke-width="0.971" stroke-linecap="round" stroke-linejoin="round"/>
<path d="M242.13 31.1002L254.53 23.4798L242.13 15.8535" stroke="#313553" stroke-width="0.971" stroke-linecap="round" stroke-linejoin="round"/>
<path d="M229.402 15.8535L217.003 23.4798L229.402 31.1002" stroke="#313553" stroke-width="0.971" stroke-linecap="round" stroke-linejoin="round"/>
<path d="M239.297 12.4072L231.885 34.439" stroke="#313553" stroke-width="0.647" stroke-linecap="round" stroke-linejoin="round"/>
<path d="M228.32 138.291L230.329 131.797L235.093 116.39L239.862 131.797L241.871 138.291" stroke="#313553" stroke-width="0.971" stroke-linecap="round" stroke-linejoin="round"/>
<path d="M230.329 131.797H239.862" stroke="#313553" stroke-width="0.971" stroke-linecap="round" stroke-linejoin="round"/>
<path d="M252.189 134.51C250.88 137.499 248.428 139.234 246.722 138.388C245.015 137.542 244.696 134.427 246.005 131.433C247.314 128.44 249.761 126.709 251.472 127.555C251.998 127.899 252.421 128.396 252.691 128.988C252.962 129.578 253.067 130.239 252.997 130.892C252.976 132.147 252.699 133.38 252.189 134.51Z" stroke="#313553" stroke-width="0.647" stroke-linecap="round" stroke-linejoin="round"/>
<path d="M252.993 130.849C252.993 130.864 252.993 130.879 252.993 130.893C253.244 133.523 251.733 140.449 255.673 137.63" stroke="#313553" stroke-width="0.647" stroke-linecap="round" stroke-linejoin="round"/>
</svg>
