<svg width="161" height="105" viewBox="0 0 161 105" fill="none" xmlns="http://www.w3.org/2000/svg">
<path d="M94.2975 83.0373C92.4005 85.5131 74.5361 88.1007 66.0455 83.0373L79.843 103.897C79.843 103.897 96.1946 80.5614 94.2975 83.0373Z" fill="#181818"/>
<path d="M68.0165 40.6581C75.2438 48.1239 87.2893 49.0022 91.6694 41.3169C96.2686 43.5127 101.525 45.7085 107.219 47.2456C91.6502 62.9153 74.736 63.7109 54.657 47.2456C60.2634 45.5333 63.5713 43.3467 68.0165 40.6581Z" fill="#181818"/>
<path d="M156.496 45.2689L160 57.1263C144.061 57.0642 135.134 55.576 119.264 47.2456C104.527 36.5608 95.8095 34.0542 79.843 32.7528C63.8227 33.4045 55.1515 37.1903 39.9835 47.2456C25.2272 54.5714 16.6854 56.6425 1 57.1263L2.97107 45.2689C16.2872 44.5172 24.0634 42.5489 36.0413 35.8269C51.0965 25.5273 60.39 21.5397 79.843 20.4562C97.0007 20.9606 105.476 24.195 119.264 33.4115C132.547 41.4991 140.742 44.0362 156.496 45.2689Z" fill="#181818"/>
<path d="M43.2686 54.2717L31.4421 59.5417C71.6882 85.0721 91.8236 84.1598 130.215 59.5417L116.198 54.2717C90.7847 69.072 75.1286 69.8993 43.2686 54.2717Z" fill="#181818"/>
<path d="M152.116 24.6283L155.401 36.7052C144.695 37.0947 138.766 35.2198 128.244 30.3374C109.082 18.0824 99.9278 14.2093 79.843 13.2101C61.2922 14.6297 55.281 16.0927 36.0413 28.3611C26.8542 32.9317 16.2796 36.5671 4.94215 36.7052L8.00826 24.6283C16.9449 24.0281 22.0889 22.4803 31.4421 17.6017C45.7176 6.29094 63.0272 0.551953 79.843 0.913549C96.6588 1.27515 105.966 2.33671 126.273 15.1863C132.153 18.5668 140.37 24.7648 152.116 24.6283Z" fill="#181818"/>
<path d="M94.2975 83.0373C92.4005 85.5131 74.5361 88.1007 66.0455 83.0373L79.843 103.897C79.843 103.897 96.1946 80.5614 94.2975 83.0373Z" stroke="#181818"/>
<path d="M68.0165 40.6581C75.2438 48.1239 87.2893 49.0022 91.6694 41.3169C96.2686 43.5127 101.525 45.7085 107.219 47.2456C91.6502 62.9153 74.736 63.7109 54.657 47.2456C60.2634 45.5333 63.5713 43.3467 68.0165 40.6581Z" stroke="#181818"/>
<path d="M156.496 45.2689L160 57.1263C144.061 57.0642 135.134 55.576 119.264 47.2456C104.527 36.5608 95.8095 34.0542 79.843 32.7528C63.8227 33.4045 55.1515 37.1903 39.9835 47.2456C25.2272 54.5714 16.6854 56.6425 1 57.1263L2.97107 45.2689C16.2872 44.5172 24.0634 42.5489 36.0413 35.8269C51.0965 25.5273 60.39 21.5397 79.843 20.4562C97.0007 20.9606 105.476 24.195 119.264 33.4115C132.547 41.4991 140.742 44.0362 156.496 45.2689Z" stroke="#181818"/>
<path d="M43.2686 54.2717L31.4421 59.5417C71.6882 85.0721 91.8236 84.1598 130.215 59.5417L116.198 54.2717C90.7847 69.072 75.1286 69.8993 43.2686 54.2717Z" stroke="#181818"/>
<path d="M152.116 24.6283L155.401 36.7052C144.695 37.0947 138.766 35.2198 128.244 30.3374C109.082 18.0824 99.9278 14.2093 79.843 13.2101C61.2922 14.6297 55.281 16.0927 36.0413 28.3611C26.8542 32.9317 16.2796 36.5671 4.94215 36.7052L8.00826 24.6283C16.9449 24.0281 22.0889 22.4803 31.4421 17.6017C45.7176 6.29094 63.0272 0.551953 79.843 0.913549C96.6588 1.27515 105.966 2.33671 126.273 15.1863C132.153 18.5668 140.37 24.7648 152.116 24.6283Z" stroke="#181818"/>
</svg>
