<svg width="300" height="213" viewBox="0 0 300 213" fill="none" xmlns="http://www.w3.org/2000/svg">
<path d="M123.097 49.1678C120.546 48.8371 97.9021 48.8371 93.8394 49.1678C93.7698 49.183 93.7085 49.2238 93.6677 49.2822C93.6268 49.3405 93.6094 49.4121 93.619 49.4827C93.6334 49.5355 93.6614 49.5835 93.7 49.6222C93.7387 49.6608 93.7867 49.6887 93.8394 49.7032C97.4927 50.0181 120.499 50.1598 123.018 49.8292C123.38 49.7977 123.491 49.215 123.097 49.1678ZM229.466 88.5661C229.151 88.5661 225.104 89.9991 226.175 90.5817L227.309 91.5265C227.057 92.0934 229.529 94.6759 227.828 100.754C227.12 100.266 227.104 100.754 227.199 100.912C229.828 103.62 248.614 118.658 252.803 121.382C253.181 121.933 255.574 120.752 255.952 120.626C264.272 117.079 272.393 113.084 280.281 108.659C283.162 107.084 283.131 101.431 279.635 99.2109C275.958 96.7656 272.129 94.5566 268.172 92.5973L273.053 88.7708C273.399 88.5031 273.21 87.5111 271.888 88.5819C269.039 83.9795 267.887 78.5273 268.628 73.1658C268.817 73.0556 270.927 71.7959 269.998 71.3864C265.274 69.4181 249.622 63.6705 244.803 63.3714C243.229 63.2611 230.631 73.339 229.45 75.3704C226.931 79.5747 227.702 84.3775 229.545 88.6134L229.466 88.5661ZM228.206 100.99C229.781 99.2739 229.293 94.5656 228.537 92.4871C230.694 94.2192 248.031 107.289 253.543 110.785C256.519 117.083 253.196 120.138 253.307 120.611C244.079 114.202 236.568 106.88 228.206 100.99ZM279.525 100.282C282.155 101.636 281.556 107.273 279.667 107.935C271.1 112.517 262.629 116.643 253.779 120.532C254.941 118.964 255.575 117.067 255.59 115.115L267.715 110.139C267.935 110.029 267.715 109.73 267.542 109.777C263.471 111.138 259.485 112.742 255.606 114.58C255.575 113.049 255.099 111.561 254.236 110.297C257.936 108.832 276.848 99.022 279.525 100.282ZM253.275 84.283C257.908 80.4468 262.755 76.877 267.794 73.591C267.426 75.5057 267.357 77.4657 267.589 79.4015C266.817 79.6535 257.275 86.645 256.787 87.0229C256.582 87.1804 256.787 87.5111 257.039 87.3851L267.699 80.1416C268.03 82.3619 269.368 87.4166 271.431 88.7866C269.337 90.4872 258.975 98.6913 256.456 98.6913C254.567 96.869 253.26 94.5282 252.699 91.9641C252.139 89.3999 252.35 86.7272 253.307 84.283H253.275ZM251.212 70.6936C252.315 71.6384 247.748 74.2996 247.575 74.3468C247.055 74.5043 246.709 73.9689 247.827 72.8981C248.394 72.41 250.472 70.111 251.212 70.7093V70.6936ZM242.63 73.3233C243.418 71.7486 246.693 69.1347 248.079 68.1898C248.147 68.1423 248.224 68.1086 248.305 68.0908C248.386 68.073 248.47 68.0713 248.552 68.086C248.634 68.1006 248.712 68.1312 248.782 68.176C248.852 68.2209 248.913 68.2791 248.961 68.3473C249.008 68.4156 249.042 68.4925 249.06 68.5738C249.077 68.655 249.079 68.739 249.064 68.8208C249.05 68.9027 249.019 68.9809 248.974 69.051C248.929 69.121 248.871 69.1816 248.803 69.2291C247.575 70.1739 244.236 73.3075 243.307 73.9532C243.238 73.9918 243.159 74.012 243.079 74.012C242.999 74.012 242.921 73.9918 242.851 73.9532C242.796 73.9278 242.746 73.8917 242.705 73.8469C242.664 73.8021 242.632 73.7496 242.611 73.6924C242.591 73.6352 242.582 73.5745 242.585 73.5138C242.589 73.4531 242.604 73.3937 242.63 73.339V73.3233ZM231.072 76.0475C237.828 77.8805 244.464 80.126 250.945 82.7713C251.354 82.976 251.212 83.6689 250.724 83.5744C243.973 81.6934 237.342 79.4059 230.868 76.7246C230.796 76.6843 230.739 76.6206 230.709 76.544C230.678 76.4675 230.674 76.3828 230.698 76.3038C230.722 76.2248 230.772 76.1563 230.84 76.1097C230.908 76.0631 230.99 76.0411 231.072 76.0475ZM229.907 89.322C237.418 93.5578 251.401 98.9432 256.676 99.7306C257.731 99.888 266.298 93.8728 267.699 92.8492C268.612 93.7468 276.218 98.0457 278.155 99.2424C275.352 99.3841 255.007 108.864 253.543 109.793C244.803 103.258 235.733 96.6284 226.773 90.4085L229.923 89.322H229.907ZM123.097 49.1678H123.113H123.097ZM148.67 19.1545C148.574 19.1152 148.466 19.1152 148.37 19.1545C147.441 19.7214 142.072 27.0279 140.985 28.3979C139.946 26.9807 138.891 25.5792 137.836 24.2092C137.631 23.9573 137.206 24.2092 137.363 24.5399C138.418 26.2248 139.552 27.8467 140.702 29.4686C140.891 29.7206 141.253 29.5946 141.41 29.3899C142.402 28.1302 148.717 20.5088 148.984 19.6427C148.996 19.5899 148.997 19.5354 148.987 19.4823C148.978 19.4292 148.958 19.3784 148.929 19.3331C148.899 19.2877 148.861 19.2486 148.817 19.2179C148.772 19.1873 148.722 19.1657 148.67 19.1545ZM118.641 52.2227C109.192 52.4116 98.7209 52.2227 94.6583 52.5691C94.5747 52.5691 94.4946 52.6023 94.4356 52.6613C94.3765 52.7204 94.3433 52.8005 94.3433 52.884C94.3433 52.9676 94.3765 53.0477 94.4356 53.1067C94.4946 53.1658 94.5747 53.199 94.6583 53.199C99.5398 53.199 114.735 53.7029 118.641 52.8683C118.971 52.7896 118.908 52.3171 118.641 52.2227ZM118.987 36.3972C119.302 36.3972 119.396 35.8618 118.987 35.8146C115.838 35.3422 96.9415 36.2712 92.3592 36.9798C92.2757 36.9798 92.1956 37.013 92.1366 37.0721C92.0775 37.1311 92.0443 37.2112 92.0443 37.2948C92.0443 37.3783 92.0775 37.4584 92.1366 37.5175C92.1956 37.5765 92.2757 37.6097 92.3592 37.6097C98.532 37.6097 112.562 36.6492 118.908 36.4287L118.987 36.3972ZM112.72 39.5465C112.987 39.5465 113.129 39.0112 112.72 38.9167C111.145 38.523 95.3984 38.9167 93.0206 39.1844C92.9832 39.1901 92.9472 39.2032 92.9149 39.2231C92.8827 39.2429 92.8547 39.269 92.8327 39.2998C92.8106 39.3307 92.795 39.3656 92.7867 39.4026C92.7785 39.4395 92.7777 39.4778 92.7844 39.5151C92.7929 39.5763 92.8202 39.6334 92.8625 39.6786C92.9048 39.7237 92.96 39.7546 93.0206 39.767C96.0597 39.9402 110.862 40.0504 112.72 39.5465ZM146.292 48.2073C147.158 46.9475 137.663 47.4042 137.253 47.8293C136.844 48.2545 137.253 54.7264 137.253 55.3248C137.253 56.2538 146.056 56.2381 146.402 55.9704C146.795 53.4081 146.795 50.801 146.402 48.2387L146.292 48.2073ZM145.615 55.2618C144.78 55.2618 138.592 55.372 138.088 54.9783C138.088 52.7581 137.946 50.5535 137.867 48.349H145.741C145.457 50.6425 145.415 52.9594 145.615 55.2618Z" fill="black"/>
<path d="M257.306 91.9675C259.511 90.6605 261.763 89.385 263.888 87.9678C264.188 87.7631 263.888 87.2277 263.542 87.4167L257.07 91.6053C257.034 91.641 257.011 91.6881 257.005 91.7388C257 91.7895 257.012 91.8405 257.04 91.8832C257.067 91.9259 257.109 91.9577 257.158 91.973C257.206 91.9884 257.259 91.9864 257.306 91.9675ZM241.434 109.257C241.245 109.131 240.993 109.431 241.182 109.588C242.756 110.958 250.504 116.375 252.204 117.572C252.425 117.729 252.614 117.367 252.409 117.209C249.102 114.69 244.945 111.367 241.434 109.257ZM139.426 42.7274C140.245 42.7274 146.654 43.4675 146.591 42.4125C146.528 41.3575 146.433 35.295 146.024 35.106C145.914 34.051 137.93 34.8226 137.19 34.9643C136.733 34.9643 136.922 41.1055 136.954 41.8456C137.001 42.9164 138.718 42.6959 139.426 42.7274ZM145.615 35.4682V42.0976C142.962 41.8246 140.292 41.772 137.631 41.9401C137.735 39.7824 137.693 37.6202 137.505 35.4682C138.812 35.4682 144.78 35.6729 145.615 35.4682ZM251.858 114.548C251.898 114.582 251.948 114.6 252 114.6C252.051 114.6 252.102 114.582 252.141 114.548C252.172 114.514 252.189 114.469 252.189 114.422C252.189 114.376 252.172 114.331 252.141 114.296C244.929 109.179 237.765 103.022 230.679 98.2189C230.474 98.0614 230.159 98.3606 230.364 98.5653C234.332 102.345 246.724 111.163 251.921 114.627L251.858 114.548ZM272.029 105.51H272.061H272.029ZM146.559 24.7447C146.538 24.6743 146.489 24.6153 146.425 24.58C146.36 24.5447 146.284 24.536 146.213 24.5557C146.166 24.5669 146.122 24.5902 146.086 24.6233C146.05 24.6564 146.023 24.6982 146.008 24.7447V30.256H137.285C137.132 27.7183 136.848 25.1902 136.434 22.6818C138.897 22.7962 141.366 22.7331 143.82 22.4929C143.875 22.4751 143.922 22.4387 143.954 22.3899C143.985 22.3411 143.999 22.2829 143.993 22.2252C143.984 22.1917 143.968 22.1604 143.946 22.1333C143.925 22.1062 143.897 22.0839 143.867 22.0677C143.284 21.8788 135.993 21.2489 136.214 22.5086C135.49 22.5086 136.545 30.382 136.545 30.382C136.922 31.3425 138.513 31.0119 139.347 31.0119C140.182 31.0119 145.977 31.1536 146.449 31.0119C147.205 30.7127 146.78 25.6737 146.607 24.7132L146.559 24.7447Z" fill="black"/>
<path d="M298.72 167.599C278.659 168.827 258.592 169.877 238.52 170.748C238.258 167.877 237.731 165.035 236.946 162.261C256.892 161.736 276.837 161.122 296.783 160.418C296.885 160.406 296.98 160.361 297.054 160.29C297.128 160.219 297.176 160.126 297.193 160.025C297.206 159.902 297.171 159.779 297.094 159.681C297.018 159.584 296.906 159.521 296.783 159.505C276.753 160.251 256.729 160.865 236.71 161.348C231.986 144.876 222.018 129.208 210.397 116.8C210.035 112.611 210.019 110.501 208.224 106.297C204.759 98.3448 200.933 96.6914 201.027 98.5811C201.026 99.0788 201.106 99.5734 201.264 100.046C200.634 99.2582 196.004 94.4397 195.059 97.0379C194.363 96.5996 193.576 96.3239 192.758 96.2312C191.941 96.1385 191.112 96.2312 190.335 96.5025C187.391 91.7785 182.462 91.7785 179.313 90.2038C173.297 87.0545 176.069 77.008 180.494 73.2603C180.494 73.2603 199.5 72.8981 199.516 72.6619C199.862 68.2056 203.657 0.384434 203.657 0.384434C156.826 -0.544623 106.437 0.384431 59.9525 1.32924C59.6375 1.32924 59.3698 1.53395 59.4013 1.81739C62.2043 25.6737 69.0856 74.5043 69.0856 74.5043C70.2193 74.961 173.156 73.3548 179.313 73.2603C176.68 76.1323 175.238 79.8988 175.282 83.7949C175.596 93.7153 183.486 89.4952 189.942 96.7544C185.753 98.5496 185.218 103.856 186.792 107.651C187.079 108.379 187.465 109.063 187.942 109.682C188.008 111.162 188.429 112.604 189.17 113.887C191.186 117.713 194.776 119.036 194.965 119.603C194.965 128.516 196.839 139.381 198.618 148.073C192.619 144.924 174.825 137.412 156.527 136.877C157.566 127.854 165.361 126.72 164.29 120.689C167.55 120.563 170.809 120.438 174.069 120.28C174.888 120.28 173.99 117.761 173.896 117.335C172.573 111.509 171.245 105.693 169.912 99.888C169.707 99.1007 168.794 93.8098 168.022 93.8098L157.866 93.9987C155.63 91.8729 150.386 91.0856 148.244 93.5578C145.095 87.4954 135.364 88.3772 135.049 94.2664C132.387 92.4556 128.435 92.0934 126.026 94.5499C125.774 94.6601 78.1399 95.3057 71.0539 95.5892H70.9279C70.8514 95.6378 70.797 95.7145 70.7764 95.8029C70.7557 95.8912 70.7706 95.9841 70.8177 96.0616C70.9437 96.8804 66.8338 116.312 66.3456 120.989C66.3456 121.65 73.4789 121.556 74.219 121.556C64.0466 133.476 54.8978 146.924 52.1736 162.655C35.0097 162.387 17.8457 161.962 0.681775 162.025C0.598249 162.025 0.518144 162.058 0.459082 162.117C0.400021 162.176 0.36684 162.256 0.36684 162.34C0.36684 162.423 0.400021 162.503 0.459082 162.562C0.518144 162.621 0.598249 162.655 0.681775 162.655C17.767 163.395 34.8994 163.473 52.0004 163.599C51.4909 166.721 51.28 169.885 51.3705 173.047C34.364 172.701 17.3576 172.166 0.36684 171.882C-0.0110812 171.882 -0.0740681 172.48 0.36684 172.48C17.3733 173.347 34.4113 173.661 51.4492 173.913C51.8901 182.464 55.2599 192.951 63.6372 196.793C67.0857 203.564 74.3922 209.658 82.5333 207.911C82.2971 209.139 82.0766 210.399 81.8404 211.658C81.7459 212.225 82.5963 212.461 82.6908 211.895C85.0055 199.423 87.4148 186.889 91.4617 174.858C91.5877 174.48 91.0208 174.339 90.8791 174.701C86.9424 185.157 84.7221 196.148 82.675 207.092C74.345 208.304 67.6999 202.998 64.2513 195.817C62.396 192.023 61.3228 187.894 61.0956 183.677C60.8683 179.46 61.4917 175.24 62.9286 171.268C67.2275 160.245 78.6753 152.372 89.9185 146.986C101.35 141.569 113.627 138.155 126.215 136.893C127.112 145.302 136.781 148.152 144.15 147.711C151.52 147.27 155.882 145.018 156.511 137.586C156.606 137.586 183.108 138.168 205.988 153.458C212.712 157.946 218.821 163.71 222.396 171.032C225.892 178.102 227.12 186.779 223.97 194.148C219.467 204.887 211.247 206.446 205.799 207.407C203.872 195.876 200.153 184.719 194.776 174.339C194.634 174.071 194.193 174.244 194.335 174.528C199.943 186.619 203.767 199.461 205.688 212.65C205.688 213.06 206.507 213.17 206.507 212.65C206.444 211.209 206.254 209.776 205.94 208.367C211.879 207.856 217.377 205.028 221.246 200.494C233.844 197.345 239.339 183.724 238.568 171.725C258.681 170.906 278.774 169.856 298.846 168.575C299.397 168.371 299.193 167.599 298.72 167.599ZM69.1486 64.5524C65.9992 44.5225 63.4955 24.5872 60.6453 4.54157C107.886 3.72274 156.354 4.06917 202.949 3.28183L199.311 62.3478C179.643 62.9462 71.6838 63.5603 69.1486 64.5524ZM164.101 119.808C163.813 118.968 163.261 118.244 162.527 117.745C163.343 116.447 163.785 114.948 163.802 113.414H164.652L165.833 119.713L164.101 119.808ZM162.779 108.265C163.048 108.048 163.296 107.806 163.519 107.541C163.897 109.226 164.212 110.911 164.527 112.596H163.771C163.848 111.088 163.504 109.589 162.779 108.265ZM173.549 119.398L166.306 119.713C166.117 117.587 165.708 115.493 165.33 113.414C167.593 113.49 169.86 113.432 172.116 113.241C172.589 115.273 173.077 117.351 173.549 119.398ZM171.975 112.517H165.204L164.07 106.612L170.605 106.423L171.975 112.517ZM170.4 105.746L164.243 105.935C164.361 105.188 164.308 104.424 164.087 103.701C163.866 102.978 163.483 102.315 162.968 101.762C162.873 101.289 162.779 100.801 162.653 100.313L169.14 100.171L170.4 105.746ZM167.991 94.5026C168.337 96.0773 168.652 97.7622 168.967 99.3999L162.495 99.5101C162.165 97.8545 161.739 96.2194 161.22 94.6129L167.991 94.5026ZM162.039 101.179C161.272 100.831 160.406 100.769 159.598 101.006C159.67 100.811 159.728 100.611 159.771 100.408H161.85L162.039 101.179ZM160.464 94.6286C160.759 96.2818 161.148 97.9168 161.629 99.5259H159.881C160.062 97.7812 159.578 96.0327 158.527 94.6286H160.464ZM122.341 95.3057H125.38C124.738 96.2978 124.512 97.5024 124.75 98.6598L122.073 99.4314C122.199 98.0772 122.341 96.5655 122.341 95.3057ZM121.491 95.3057V99.6991C121.224 99.8577 120.966 100.031 120.719 100.219L113.271 100.345C113.34 98.711 113.292 97.0744 113.129 95.4474L121.491 95.3057ZM118.184 106.722H113.224V101.211L119.68 101.101C118.997 101.848 118.504 102.75 118.244 103.728C117.984 104.707 117.963 105.734 118.184 106.722ZM113.255 114.013H117.554C117.615 115.387 118.124 116.703 119.003 117.761C118.483 118.12 118.065 118.607 117.789 119.176C117.514 119.744 117.389 120.374 117.428 121.004H113.176C113.224 118.642 113.255 116.328 113.255 114.013ZM117.979 112.107C117.841 112.436 117.741 112.78 117.68 113.131H113.334V107.446H118.42C118.762 108.386 119.376 109.203 120.184 109.793C119.2 110.302 118.405 111.113 117.916 112.107H117.979ZM112.704 120.989H93.1938C93.3985 118.28 93.1938 116.58 94.9417 114.249L112.531 114.044C112.515 116.359 112.562 118.674 112.641 120.989H112.704ZM95.5873 113.383C97.2259 111.726 98.4646 109.717 99.2091 107.509H103.146V113.288L95.5873 113.383ZM104.154 95.6207L112.405 95.479C112.316 97.1102 112.316 98.745 112.405 100.376L104.106 100.518C104.106 98.896 104.122 97.2583 104.154 95.6207ZM104.043 101.384L112.373 101.242V106.754H103.933C103.933 104.958 103.933 103.179 104.043 101.384ZM103.933 107.494H112.452V113.178L103.587 113.288C103.713 111.352 103.807 109.478 103.933 107.494ZM96.0597 95.7624L103.602 95.6364L103.429 100.534L95.7448 100.66C95.9318 99.0343 95.9897 97.3968 95.918 95.7624H96.0597ZM95.6818 101.51L103.413 101.384L103.272 106.738H99.4138C99.6027 105.872 99.9492 104.455 98.9256 103.982C97.9021 103.51 96.9258 105.872 95.0362 106.722C95.2094 104.99 95.3669 103.258 95.5401 101.526L95.6818 101.51ZM88.9422 95.8884L95.4456 95.7781C95.2206 97.4022 95.0787 99.0368 95.0204 100.675H94.4851C95.1622 99.022 91.5089 97.9512 88.3596 100.675C88.4068 99.8723 88.8477 96.4238 88.8005 95.8884H88.9422ZM94.8157 101.604C94.7055 103.321 94.611 105.021 94.5008 106.738H92.0443C91.5719 105.352 92.0443 102.093 93.304 101.604H94.7842H94.8157ZM87.9974 95.9356L87.7455 100.817H84.8008C83.6356 98.3921 84.3756 96.5497 83.2261 95.9671L87.9974 95.9356ZM87.3675 101.699C87.0045 102.154 86.6978 102.651 86.4542 103.179L85.289 101.746L87.3675 101.699ZM77.3054 96.1403L82.3601 96.0458C80.7854 96.8017 80.5492 99.4786 80.5492 100.943H78.1714C77.3684 100.25 77.0219 100.943 76.4236 100.943L77.2739 96.0458L77.3054 96.1403ZM80.8011 104.14C79.9273 103.557 79.2172 102.76 78.7383 101.825H80.5177C80.5365 102.601 80.6101 103.374 80.7382 104.14H80.8011ZM75.589 106.502L76.3448 101.872C76.187 103.47 76.386 105.084 76.9274 106.596L75.589 106.502ZM77.1637 107.273C77.8093 109.431 78.7383 111.399 79.1792 113.572L74.4552 113.666L75.4 107.257L77.1637 107.273ZM71.4476 96.1561H76.6125C76.3133 97.7307 76.0299 99.4314 75.7464 101.085C74.03 101.085 72.2979 101.179 70.5815 101.258C70.9524 99.5752 71.2205 97.8714 71.3846 96.1561H71.4476ZM70.4713 101.904H75.589C75.3528 103.478 75.1008 105.053 74.8489 106.517H69.5737C69.8414 104.943 70.1249 103.415 70.4083 101.904H70.4713ZM69.5107 107.069C71.2429 107.163 72.975 107.21 74.7072 107.242C74.408 109.368 74.0615 111.525 73.7781 113.666C71.9357 113.666 70.0934 113.792 68.251 113.871C68.6762 111.604 69.0856 109.336 69.5107 107.069ZM73.0537 120.721H66.9755C67.3692 118.611 67.7786 116.517 68.2038 114.422L73.6679 114.564C73.3357 116.603 73.1097 118.658 72.9908 120.721H73.0537ZM73.4947 120.721L74.4237 114.422H79.3209C79.3681 114.841 79.3681 115.263 79.3209 115.682L74.8961 120.737L73.4947 120.721ZM62.7711 169.111C60.9293 173.307 60.0086 177.85 60.0711 182.432C60.1336 187.015 61.1778 191.531 63.1333 195.675C47.8905 185.377 51.1343 162.607 57.622 148.057C62.9286 136.137 71.3374 126.012 79.9508 116.296C81.2106 114.863 77.1322 105.273 76.9904 102.927C76.896 101.179 77.6203 100.817 78.2659 102.061C78.9115 103.305 79.8406 104.722 81.1161 105.021C81.62 106.502 82.0136 106.029 81.9507 105.793C81.4153 103.195 80.4862 99.4944 82.2183 97.1009C83.4781 95.4317 83.4308 98.5023 83.5568 99.1007C83.856 100.534 85.1315 103.305 86.281 103.825C85.8873 104.943 86.5487 104.549 86.5959 104.407C88.832 98.5338 95.6661 99.3684 93.4615 100.817C92.8802 101.164 92.3863 101.64 92.0178 102.208C91.6492 102.775 91.4159 103.42 91.3357 104.092C90.5326 109.651 94.9102 108.816 98.0911 104.943C99.4138 103.368 99.4768 106.754 97.3824 110.171C95.6031 113.068 93.1938 114.107 92.9104 117.902C92.123 127.177 90.2177 138.247 88.9422 146.404C78.4864 151.459 67.7943 158.293 62.7081 169.126L62.7711 169.111ZM89.761 145.979C91.2986 137.972 92.3972 129.887 93.0521 121.76H117.475C118.389 127.035 124.939 127.744 125.994 135.932C113.427 137.161 101.167 140.56 89.761 145.979ZM156.244 133.271C155.852 134.509 155.598 135.788 155.488 137.082C154.858 143.758 152.024 145.979 144.607 146.53C136.734 147.175 128.199 144.687 127.002 136.2C125.947 128.642 123.522 129.303 119.633 124.012C118.467 122.437 117.428 119.508 119.633 118.28C120.716 119.47 122.072 120.378 123.585 120.926C126.986 128.563 128.136 137.365 138.025 138.342C157.141 140.121 152.858 129.712 158.921 120.626C160.099 120.082 161.167 119.324 162.07 118.39C162.757 118.965 163.232 119.754 163.418 120.631C163.603 121.507 163.489 122.421 163.094 123.225C161.55 126.957 157.834 128.374 156.244 133.271ZM195.264 97.9512C195.8 99.1479 196.351 100.329 196.839 101.526C196.067 100.534 192.288 96.408 191.028 98.6125C190.383 99.7621 191.737 101.478 192.288 102.502C190.174 102.876 188.286 104.049 187.013 105.777C184.997 98.4551 192.115 94.8018 195.264 97.9512ZM188.147 108.675C187.847 107.935 187.532 107.179 187.218 106.439C188.599 104.821 190.456 103.68 192.524 103.179C193.41 105.008 193.985 106.972 194.225 108.99C194.65 113.021 191.564 110.139 190.068 108.753C189.485 108.155 188.509 107.903 188.068 108.675H188.147ZM222.238 199.077C227.45 191.77 227.671 182.338 224.648 174.087C220.364 162.418 210.176 154.246 199.453 148.53C197.391 139.008 196.054 129.343 195.453 119.619C195.453 118.138 190.446 117.131 188.887 111.32C188.603 110.265 188.021 107.494 189.926 109.478C191.831 111.462 195.075 113.288 194.933 108.942C194.744 103.793 191.249 100.36 191.564 99.1952C191.957 97.7307 194.87 100.486 195.343 100.959C196.574 102.313 197.69 103.767 198.681 105.305C198.854 105.557 199.28 105.305 199.122 105.069C198.755 104.439 198.377 103.809 197.988 103.179C198.24 102.644 195.406 97.6363 195.91 97.1638C196.414 96.6914 198.681 98.3291 199.185 98.7385C201.815 101.022 201.941 102.549 202.838 103.73C202.879 103.745 202.924 103.745 202.964 103.73C203.02 103.735 203.076 103.718 203.12 103.683C203.164 103.648 203.193 103.597 203.2 103.541C203.106 102.533 202.523 101.967 202.24 101.274C201.956 100.581 201.374 99.022 201.768 98.4708C201.957 98.3134 203.043 99.1164 203.169 99.2424C204.208 100.237 205.075 101.397 205.736 102.675C210.554 110.911 209.106 116.217 209.924 117.02C221.876 130.484 234.647 150.199 237.229 167.993C238.977 180.338 235.088 194.731 222.16 199.077H222.238Z" fill="black"/>
<path d="M108.027 27.5949C108.389 27.4846 108.248 26.965 107.917 26.9178C102.185 27.028 96.0912 26.9178 90.4381 27.0752C89.9972 27.0752 90.0602 27.7523 90.4381 27.8153C93.3355 28.2877 105.508 28.3665 108.027 27.5949ZM258.361 111.808C260.503 110.879 270.959 106.659 272.203 105.951C272.226 105.93 272.245 105.904 272.258 105.876C272.271 105.847 272.277 105.817 272.277 105.785C272.277 105.754 272.271 105.723 272.258 105.695C272.245 105.666 272.226 105.641 272.203 105.62C272.177 105.582 272.142 105.551 272.1 105.532C272.058 105.512 272.012 105.505 271.966 105.51C269.321 106.061 260.755 110.139 258.094 111.462C257.952 111.572 258.141 111.903 258.361 111.808ZM152.748 74.8351L119.365 75.339C120.798 91.5266 153.173 91.7785 152.748 74.8351ZM152.748 40.1923C152.748 40.2606 152.774 40.3264 152.821 40.3762C152.868 40.426 152.932 40.4559 153 40.4599C158.338 40.5859 169.628 40.9166 173.896 40.334C174.242 40.334 174.132 39.7513 173.896 39.7513C167.865 39.7513 159.157 39.7513 153.079 39.9246C153.039 39.9149 152.997 39.9145 152.957 39.9235C152.917 39.9326 152.879 39.9508 152.847 39.9766C152.815 40.0025 152.79 40.0355 152.772 40.0729C152.755 40.1103 152.747 40.1511 152.748 40.1923ZM107.082 16.5722C107.523 16.5722 107.334 15.9423 106.972 15.8793C96.1227 16.1942 84.3127 16.4304 73.7309 16.6666C73.6954 16.6723 73.6615 16.685 73.6312 16.7041C73.6008 16.7231 73.5745 16.7481 73.554 16.7774C73.5334 16.8068 73.5189 16.84 73.5115 16.8751C73.504 16.9101 73.5036 16.9464 73.5104 16.9816C73.5195 17.0367 73.5457 17.0877 73.5852 17.1272C73.6248 17.1667 73.6757 17.1929 73.7309 17.202C81.431 17.7532 97.0833 16.9186 107.082 16.5722ZM113.145 12.9662C113.507 12.9662 113.617 12.3363 113.145 12.289C109.618 11.8639 74.8331 12.4308 72.4081 12.9662C72.1719 12.9662 72.1877 13.4386 72.4081 13.4386C81.3365 13.4228 102.736 12.8087 113.145 12.9662ZM44.6939 125.445V125.429V125.445ZM45.3552 125.713C46.5684 123.469 47.4993 121.083 48.1267 118.611C48.4199 117.761 48.4869 116.85 48.3213 115.966C48.1556 115.083 47.7629 114.258 47.1819 113.572C47.7534 112.134 48.0473 110.6 48.0479 109.053C47.733 106.486 45.0088 106.643 43.5444 108.612C37.6393 116.485 31.1202 129.083 31.3092 138.767C31.1989 139.223 31.4351 139.743 31.8445 139.365C38.8356 132.439 44.0068 123.892 46.8984 114.485C48.8668 117.414 45.8276 122.469 44.6939 125.429C44.5522 125.823 45.1505 126.059 45.3552 125.713ZM31.9075 138.121C32.023 136.374 32.2651 134.637 32.6319 132.925L35.0569 134.673C34.0333 135.806 32.9783 136.987 31.9075 138.121ZM46.5362 112.926C45.4699 112.032 44.1893 111.429 42.82 111.179C43.3462 110.217 43.9801 109.319 44.7096 108.502C45.4182 107.84 46.7724 107.573 47.1819 108.691C47.3209 110.124 47.0989 111.569 46.5362 112.895V112.926ZM86.6117 32.7126C85.9188 32.996 81.8877 39.0112 81.1476 40.0663C80.2313 38.8488 79.1742 37.7441 77.9982 36.7752C77.9325 36.7448 77.8581 36.7391 77.7886 36.7594C77.7191 36.7797 77.6593 36.8245 77.6203 36.8854C77.5973 36.9463 77.5973 37.0135 77.6203 37.0744C78.5182 38.5446 79.5743 39.9123 80.7696 41.1528C80.8125 41.2001 80.8647 41.2379 80.923 41.2638C80.9813 41.2896 81.0444 41.303 81.1082 41.303C81.172 41.303 81.2351 41.2896 81.2934 41.2638C81.3517 41.2379 81.4039 41.2001 81.4468 41.1528V41.0741L86.6117 34.0195C87.336 32.996 87.1313 32.4449 86.6117 32.7126ZM181.092 24.4455C181.423 24.4455 181.486 23.8156 181.092 23.7684C171.267 23.2798 161.421 23.4218 151.614 24.1936C151.284 24.1936 151.315 24.7762 151.614 24.7605C159.047 24.6975 172.983 24.9337 181.092 24.4455Z" fill="black"/>
<path d="M86.6117 42.2553C87.2416 42.0033 85.9818 37.3108 85.8086 36.5707C85.8035 36.5376 85.7918 36.5059 85.7744 36.4773C85.7569 36.4487 85.7341 36.4238 85.707 36.4041C85.6799 36.3843 85.6493 36.3701 85.6167 36.3622C85.5842 36.3543 85.5504 36.3529 85.5173 36.3581C85.4842 36.3633 85.4525 36.3749 85.4239 36.3923C85.3953 36.4098 85.3704 36.4327 85.3507 36.4597C85.3309 36.4868 85.3167 36.5175 85.3088 36.55C85.301 36.5825 85.2996 36.6163 85.3047 36.6494C85.4937 38.3343 85.6827 40.035 85.9976 41.6884C83.3679 41.8931 80.9901 41.8773 78.4234 41.9876C77.951 39.9405 77.5416 37.2635 76.8487 35.2322C78.8293 35.3987 80.8204 35.3987 82.801 35.2322C84.108 35.2322 84.0135 34.4134 82.8955 34.4291C82.2341 34.4291 76.5968 34.3189 76.5968 34.996C75.8567 34.996 77.4156 41.5939 77.5101 42.0348C77.5264 42.1133 77.5672 42.1846 77.6266 42.2384C77.6861 42.2921 77.7611 42.3256 77.8408 42.334C78.0297 43.1528 86.3125 43.0268 86.6117 42.2553ZM181.974 36.7281C181.96 36.6669 181.926 36.6121 181.878 36.5722C181.829 36.5323 181.769 36.5096 181.706 36.5077C172.164 36.2557 161.96 36.7124 152.291 36.6967C152.008 36.6967 151.992 37.1691 152.291 37.2005C160.763 37.7674 173.864 38.1139 181.769 37.0746C181.84 37.0526 181.901 37.005 181.939 36.9409C181.976 36.8769 181.989 36.801 181.974 36.7281ZM78.0612 30.8704C80.2701 30.932 82.4806 30.832 84.6749 30.5712C86.0448 30.9176 83.9505 22.3199 83.6986 21.9262C83.6654 21.852 83.6092 21.7905 83.5382 21.7508C83.4673 21.7111 83.3855 21.6953 83.3049 21.7058C81.8877 21.7058 75.3056 21.7058 74.3765 21.9105C73.2427 20.9972 74.8961 28.7603 75.1323 29.6894C75.589 31.2483 76.5968 30.8704 78.0612 30.8704ZM74.5655 22.4459C77.471 22.8007 80.4061 22.8429 83.3206 22.5718L84.3284 29.8468L76.0771 30.272C76.1401 29.7366 74.7544 23.4851 74.5655 22.4459ZM174.51 27.7525C174.594 27.7525 174.674 27.7193 174.733 27.6603C174.792 27.6012 174.825 27.5211 174.825 27.4376C174.825 27.3541 174.792 27.2739 174.733 27.2149C174.674 27.1558 174.594 27.1226 174.51 27.1226C172.557 26.729 155.771 27.3273 152.291 27.6265C152.024 27.6265 152.024 28.0832 152.291 28.0989C154.181 28.1777 172.636 28.2249 174.51 27.7525ZM42.2847 77.7011C42.5838 77.7011 44.8041 76.4414 45.3238 78.4885C46.0481 81.2914 48.8825 79.6065 49.3392 77.4649C49.9218 74.8195 47.4023 72.7409 44.4262 72.7409C38.3795 72.7409 39.7652 77.9846 42.2847 77.7011ZM44.4262 73.355C47.8275 73.4653 49.9218 76.6776 47.859 78.5672C46.0954 80.1419 46.2843 77.8744 45.434 76.9925C43.7334 75.4179 42.3791 77.3232 41.4186 76.5201C39.4502 74.9455 43.2137 73.2606 44.4262 73.355ZM81.3051 47.7036C78.8328 47.7036 78.7383 47.2942 79.0533 49.7035C79.1478 50.3806 79.6359 55.1676 80.4547 55.2148C80.628 55.9707 87.6982 55.703 88.5958 55.4353C89.8083 55.4353 88.5958 51.7033 88.5958 51.2781C87.5565 45.7983 88.8477 47.4989 81.3051 47.7036ZM80.8484 54.8526C80.4547 52.8685 80.1556 50.2388 79.5887 48.3492C82.167 48.6012 84.7674 48.5059 87.3203 48.0658C87.4806 50.2582 87.8229 52.4335 88.3438 54.5692C85.8874 54.6794 83.3364 54.8054 80.8484 54.8526ZM184.446 12.0373C181.549 11.7696 139.82 12.0373 134.529 12.4467C134.461 12.4583 134.4 12.496 134.358 12.5518C134.317 12.6076 134.299 12.6772 134.309 12.7459C134.32 12.8001 134.347 12.85 134.386 12.8891C134.425 12.9283 134.475 12.9552 134.529 12.9663C139.017 13.2025 181.234 13.0923 184.446 12.7301C184.538 12.7301 184.626 12.6936 184.691 12.6287C184.756 12.5637 184.793 12.4756 184.793 12.3837C184.793 12.2918 184.756 12.2037 184.691 12.1387C184.626 12.0738 184.538 12.0373 184.446 12.0373ZM113.381 23.6111C113.743 23.5324 113.617 23.0442 113.302 22.9813L89.3831 23.5796C89.3484 23.5833 89.3148 23.5942 89.2845 23.6116C89.2542 23.629 89.2278 23.6526 89.2071 23.6807C89.1863 23.7088 89.1717 23.741 89.164 23.7751C89.1564 23.8092 89.1559 23.8445 89.1627 23.8788C89.1718 23.934 89.198 23.9849 89.2375 24.0244C89.277 24.064 89.328 24.0901 89.3831 24.0993C95.3826 24.5402 108.169 24.6662 113.381 23.6111ZM208.224 67.8752C208.334 69.0719 209.531 81.008 209.972 81.874C213.121 88.0153 224.711 88.1727 224.963 79.0869C225.403 75.3076 226.931 64.4581 226.332 61.7654C226.506 60.8836 227.419 57.0414 227.592 55.0101C227.592 54.6794 228.222 45.688 226.962 47.058C225.281 49.2965 223.79 51.6721 222.506 54.1598C222.286 55.1203 222.065 56.0651 221.829 57.0099C221.132 56.7472 220.409 56.5624 219.672 56.4588C219.672 55.8132 219.199 52.6638 218.979 51.4041C217.892 49.294 216.774 47.4044 215.829 45.2156C214.491 41.9246 214.459 41.8616 214.082 45.4833C213.451 49.1728 213.451 52.9426 214.082 56.632C206.948 58.1122 207.688 62.3166 208.208 67.8752H208.224ZM225.451 50.5538C225.643 50.7401 225.874 50.8829 226.126 50.9726C226.379 51.0622 226.648 51.0966 226.915 51.0734V55.0416C226.252 55.106 225.582 55.036 224.946 54.8358C224.31 54.6356 223.721 54.3092 223.215 53.8763C223.986 52.7898 224.789 51.6718 225.451 50.5538ZM223.183 54.6952C224.226 55.4367 225.478 55.8282 226.758 55.8132C226.238 58.7421 225.718 61.6552 225.309 64.5999C224.774 66.521 222.16 67.2138 220.459 67.45C221.498 63.2929 222.286 58.8208 223.183 54.6479V54.6952ZM220.034 66.3162C219.957 66.7116 219.905 67.1113 219.876 67.513L216.034 67.6075L214.459 52.7741C215.172 52.989 215.925 53.0268 216.655 52.8841C217.385 52.7414 218.069 52.4225 218.648 51.9552C218.648 51.9552 219.672 66.0801 220.034 66.269V66.3162ZM214.648 47.7351C214.89 47.7981 215.141 47.8111 215.388 47.7731C215.634 47.7352 215.87 47.6473 216.081 47.5147L218.239 51.3884C217.673 51.8097 217.018 52.0944 216.324 52.2201C215.63 52.3458 214.916 52.309 214.239 52.1127C214.212 50.6272 214.349 49.1432 214.648 47.6879V47.7351ZM225.561 65.8753C225.277 69.8435 224.774 78.2208 223.75 81.9685C221.939 86.8342 214.05 86.913 210.57 81.9685C209.909 76.5044 209.247 70.9458 208.602 65.5604C211.546 69.8278 222.994 69.3081 225.561 65.8281V65.8753Z" fill="black"/>
<path d="M13.8776 83.2277C16.2742 84.4793 18.8045 85.4566 21.4202 86.1409C16.397 93.0537 30.7738 102.911 43.9223 97.6517C49.9533 95.2425 55.9843 87.5896 50.0793 82.2829C56.378 77.1967 58.5983 69.8588 58.3306 61.8122C57.9212 49.4037 52.4413 40.2706 39.8912 37.326C33.7081 35.8791 27.2289 36.3796 21.3415 38.759L18.9008 34.5388C19.6723 34.1294 20.4754 33.7357 21.2628 33.3893C23.3413 32.6807 22.7115 31.1533 21.4832 31.6099C-2.64077 40.4124 -8.21512 72.142 13.8776 83.2277ZM21.6092 85.0386C21.1683 83.4639 22.3493 81.8893 21.7982 80.1729C20.5384 76.0945 15.2633 78.4565 13.9248 75.7008C12.4603 72.6932 16.3655 72.1735 17.1529 70.0162C17.2921 69.6385 17.3276 69.2305 17.2556 68.8344C17.1836 68.4384 17.0067 68.0689 16.7435 67.7644C14.4759 64.93 9.23226 67.9219 10.7282 61.3083C11.862 56.3166 16.6805 53.9545 20.1762 56.1591C23.672 58.3636 25.7663 59.8438 30.1912 57.2614C37.5606 52.931 36.6473 61.9854 34.3955 64.7253C33.1988 66.2055 31.0257 66.1268 29.3566 66.7566C23.9082 68.8037 23.9397 72.4727 28.2543 73.3703C29.9235 73.7167 32.065 73.5592 33.372 74.819C36.915 78.2675 29.5928 85.637 27.278 86.8495C26.034 86.5975 22.2391 85.8574 21.6092 85.0386ZM41.5918 38.7117C50.8666 41.5934 55.7639 48.3015 57.0866 57.8912C57.7153 62.0298 57.5604 66.2498 56.6299 70.3311C56.252 70.8508 50.9296 72.3152 49.2132 70.1107C48.5506 69.2197 48.1081 68.1845 47.922 67.0898C47.7359 65.9951 47.8114 64.8719 48.1424 63.812C49.166 61.1666 52.646 58.836 51.5752 56.1276C50.095 52.3799 45.7647 57.4976 43.9381 56.4425C41.1981 54.8679 46.3316 51.8445 40.4738 50.758C38.3165 50.3643 36.5528 51.2461 34.9624 48.8684C31.3249 43.42 40.7887 38.696 41.5918 38.6645V38.7117ZM23.6248 45.6875C23.6927 45.7949 23.7957 45.8754 23.9162 45.9156C24.0367 45.9558 24.1674 45.9531 24.2861 45.908C24.4225 45.8519 24.5317 45.7449 24.5905 45.6097C24.6493 45.4744 24.6531 45.3216 24.6011 45.1836L21.7352 39.5935C27.5758 37.2516 34.0061 36.8108 40.1116 38.3338C32.2382 40.932 31.3092 49.8132 36.9623 51.3406C38.159 51.6713 43.5129 51.1989 42.5838 53.4822C42.3953 53.8526 42.2895 54.2596 42.2739 54.6749C42.2584 55.0903 42.3333 55.5041 42.4936 55.8876C42.6539 56.2711 42.8957 56.6151 43.2022 56.8958C43.5087 57.1766 43.8727 57.3873 44.2687 57.5133C46.4733 57.907 48.8353 54.5844 50.4572 55.9386C53.2916 58.3006 45.8907 61.9539 47.1504 67.2133C48.0952 71.2445 49.7644 72.52 53.8585 71.9373C54.7553 71.8602 55.6252 71.5917 56.4095 71.15C53.0239 83.0073 40.3636 88.4714 28.7897 87.0384C31.1202 84.8969 34.742 80.6453 35.0884 77.5904C35.6238 72.1735 29.4038 73.26 27.1206 72.0633C23.9712 70.4886 28.4748 67.7487 31.3564 67.1188C32.3007 66.9634 33.2146 66.6605 34.0649 66.2213C38.7889 63.3239 37.4819 51.6713 30.6321 55.9701C24.7743 59.6391 22.9634 56.5213 20.2392 55.1198C15.8774 52.8995 9.89363 56.3953 9.59444 62.9932C9.42122 67.481 13.1217 66.5204 15.279 67.7172C15.6656 67.8622 15.9885 68.1394 16.1902 68.4997C16.392 68.86 16.4597 69.2801 16.3813 69.6855C15.8774 71.2602 13.5941 71.5751 12.9642 73.4805C12.7152 74.2236 12.7243 75.0291 12.9901 75.7665C13.2558 76.5038 13.7627 77.1298 14.4287 77.5432C16.4915 78.7399 20.1447 77.7006 21.0108 80.5508C21.436 81.9365 20.6014 83.3537 20.6959 84.7552C16.6783 83.3112 13.1406 80.7799 10.4771 77.4436C7.81353 74.1072 6.12875 70.0967 5.61052 65.8591C4.19331 55.1513 10.7282 44.7427 20.3337 40.1919C21.3258 42.0185 22.5697 43.9081 23.6248 45.6875ZM9.45272 41.4831C11.8166 39.0319 14.5406 36.9557 17.5308 35.3262C18.4085 36.6727 19.2127 38.0657 19.94 39.4991C14.998 41.795 10.8849 45.5603 8.16247 50.2809C5.44002 55.0015 4.24086 60.4473 4.7287 65.8748C5.05696 68.9857 6.03202 71.9935 7.5913 74.7053C9.15059 77.4171 11.2596 79.7729 13.7831 81.6216C-1.27081 73.26 -1.90068 53.5451 9.45272 41.4831ZM177.518 52.5846C176.163 52.2854 155.913 52.1909 153.047 52.5846C152.976 52.5846 152.908 52.6128 152.858 52.663C152.808 52.7132 152.779 52.7813 152.779 52.8523C152.779 52.9233 152.808 52.9914 152.858 53.0416C152.908 53.0918 152.976 53.12 153.047 53.12C154.134 53.2774 175.297 53.6396 177.518 53.12C177.591 53.1036 177.657 53.0628 177.704 53.0041C177.751 52.9454 177.777 52.8724 177.777 52.7972C177.777 52.7219 177.751 52.6489 177.704 52.5902C177.657 52.5316 177.591 52.4907 177.518 52.4744V52.5846ZM184.241 16.3671C169.046 16.5403 149.41 16.0207 135.71 16.3671C135.332 16.3671 135.364 16.9025 135.71 16.934C141.458 17.5638 179.612 17.5166 184.241 16.934C184.286 16.9302 184.33 16.9172 184.37 16.8958C184.41 16.8744 184.445 16.8451 184.473 16.8097C184.501 16.7743 184.521 16.7335 184.533 16.6899C184.545 16.6463 184.547 16.6007 184.541 16.5561C184.515 16.4982 184.473 16.4493 184.42 16.4156C184.367 16.3819 184.305 16.365 184.241 16.3671ZM182.557 49.1675C173.345 48.9628 161.834 49.5297 152.024 49.2778C151.74 49.2778 151.677 49.6872 152.024 49.7187C158.055 50.3171 176.935 50.9154 182.62 49.8132C182.919 49.7344 182.95 49.1675 182.557 49.1675Z" fill="black"/>
</svg>
